<svg width="509" height="509" viewBox="0 0 509 509" fill="none" xmlns="http://www.w3.org/2000/svg">
<path d="M338.702 69.2266C331.884 66.3071 324.984 63.6188 318.003 61.1618C269.383 44.189 211.257 53.845 168.648 81.9426C146.113 96.8074 130.418 116.704 118.722 140.871C106.836 165.447 98.567 191.953 81.5534 213.713C64.907 235.024 41.583 251.875 32.199 278.109C11.799 335.419 46.6966 413.674 112.058 419.1C158.176 422.935 175.257 449.102 223.578 462.307C271.899 475.513 319.553 473.949 374.756 434.509C397.046 418.597 416.576 397.626 425.076 371.119C432.733 347.265 425.661 322.35 426.735 297.992C428.095 267.936 449.08 245.415 460.313 218.867C476.987 179.495 453.69 144.87 423.199 120.417C397.451 99.6488 369.032 82.4315 338.702 69.2266V69.2266Z" fill="#3BC87C"/>
<path opacity="0.7" d="M338.702 69.2266C331.884 66.3071 324.984 63.6188 318.003 61.1618C269.383 44.189 211.257 53.845 168.648 81.9426C146.113 96.8074 130.418 116.704 118.722 140.871C106.836 165.447 98.567 191.953 81.5534 213.713C64.907 235.024 41.583 251.875 32.199 278.109C11.799 335.419 46.6966 413.674 112.058 419.1C158.176 422.935 175.257 449.102 223.578 462.307C271.899 475.513 319.553 473.949 374.756 434.509C397.046 418.597 416.576 397.626 425.076 371.119C432.733 347.265 425.661 322.35 426.735 297.992C428.095 267.936 449.08 245.415 460.313 218.867C476.987 179.495 453.69 144.87 423.199 120.417C397.451 99.6488 369.032 82.4315 338.702 69.2266V69.2266Z" fill="white"/>
<path d="M251.545 484.821C291.436 484.821 323.773 478.128 323.773 469.872C323.773 461.616 291.436 454.923 251.545 454.923C211.655 454.923 179.317 461.616 179.317 469.872C179.317 478.128 211.655 484.821 251.545 484.821Z" fill="#263238"/>
<path d="M381.021 381.021C451.165 310.877 451.166 197.151 381.021 127.007C310.877 56.863 197.151 56.8631 127.007 127.007C56.863 197.151 56.863 310.877 127.007 381.021C197.151 451.166 310.877 451.166 381.021 381.021Z" fill="white" stroke="#263238" stroke-miterlimit="10"/>
<path d="M254.015 414.585C208.026 414.584 163.789 396.943 130.418 365.298C97.0473 333.653 77.0852 290.414 74.6444 244.49C74.4812 247.645 74.386 250.827 74.386 254.01C74.7982 301.378 93.9041 346.665 127.545 380.015C161.186 413.364 206.638 432.076 254.008 432.076C301.378 432.076 346.83 413.364 380.471 380.015C414.112 346.665 433.218 301.378 433.63 254.01C433.63 250.809 433.548 247.636 433.385 244.49C430.944 290.414 410.982 333.653 377.612 365.298C344.241 396.943 300.004 414.584 254.015 414.585V414.585Z" fill="#263238" stroke="#263238" stroke-miterlimit="10"/>
<path d="M244.141 173.43L249.255 180.243L260.774 184.514L263.331 193.463L256.082 196.441V198.155L268.866 203.268L274.836 201.99L277.815 197.298L276.972 189.192L269.288 186.214L264.609 178.543L247.555 170.859L244.141 173.43Z" fill="#48B08B" stroke="#263238" stroke-miterlimit="10"/>
<path d="M354.981 367.869L341.381 362.334L324.748 356.363H311.543L299.18 353.807L285.58 356.785L277.896 357.22H273.218L264.256 362.334L255.728 365.734L244.128 358.444L247.106 346.503L239.871 343.511H231.344L230.065 339.676L230.908 332.006L227.93 327.749L221.96 328.592L220.26 332.863L213.011 333.284L206.619 325.614L204.062 315.387L210.454 303.446L222.816 304.303L226.23 307.281H231.344L237.736 303.446L243.271 305.146L250.928 318.365L253.906 317.943L253.049 308.138L250.492 303.024L251.349 294.864L267.125 288.064L269.247 272.302L276.047 266.753L281.596 256.947L285.852 256.104L295.658 249.698L296.08 246.298L289.28 246.72L288.001 243.307H283.309L276.06 245.02L279.474 239.471L294.434 235.215L297.848 231.366L303.804 240.75L307.653 244.585L313.61 242.885L311.067 237.309L302.118 230.917L291.891 219.411L281.228 212.162L271.001 210.462L265.888 205.39L259.088 203.69L258.231 205.39L257.388 217.752L259.088 222.022L255.252 235.622L246.725 228.822L248.004 222.866L239.055 218.595L235.22 213.903L237.328 203.309L249.69 194.346L250.533 184.119L245.841 184.541L242.863 180.706L241.584 174.314L238.606 173.892L236.892 180.692L232.2 181.549L230.079 166.589L226.665 164.454L220.695 161.897L213.895 165.31L222.408 173.47L224.122 180.719L208.768 169.159L198.119 157.654L197.262 146.134L186.178 142.734L177.651 148.27C175.584 149.524 173.45 150.663 171.259 151.683C169.124 152.54 161.032 153.383 161.032 153.383L159.318 160.632L149.512 161.054L150.369 165.746L166.145 168.302L174.237 177.265V192.225L169.559 205.43L170.402 219.507L158.448 240.355L155.891 271.472L159.808 289.383L165.343 302.983L171.735 303.827L169.613 297.027L166.2 291.913L164.064 282.529L167.9 281.672L173.87 297.027L178.127 310.627V321.711L186.287 331.516L200.608 342.233L222.776 348.203L229.576 354.595L234.689 361.395L242.373 366.087L251.744 368.644L261.128 368.209C261.128 368.209 260.706 372.479 260.706 374.614C260.706 376.75 254.736 383.985 254.736 383.985L250.044 392.512L253.457 401.896L262.828 405.731L276.047 419.331L282.017 421.888V428.28L282.765 431.258C315.936 425.883 346.922 411.272 372.172 389.098L372.389 386.011L383.908 365.122L378.36 361.287L354.981 367.869Z" fill="#48B08B" stroke="#263238" stroke-miterlimit="10"/>
<path d="M399.317 199.433L394.625 191.273L388.655 181.889L386.955 169.105L394.625 170.383L395.047 166.127L389.512 165.691L394.204 163.57L399.317 160.578V156.321L394.204 149.521L393.102 140.355C368.327 110.038 334.329 88.6428 296.278 79.4222C258.227 70.2017 218.206 73.6606 182.302 89.2729L192.135 96.2361L186.164 103.907L178.004 105.607L177.161 117.126L173.748 118.404L169.545 123.069L169.967 130.739L177.216 131.596L174.224 138.831H181.472L193.808 123.069L195.086 116.269L207.027 115.412L210.005 110.299L222.368 109.02L223.646 101.771L232.608 101.35C232.608 101.35 239 97.9361 240.279 97.9361C242.744 98.471 245.166 99.1847 247.528 100.071L253.92 105.185H262.868L270.552 100.493L280.344 101.35C281.751 102.281 283.36 102.864 285.036 103.05C287.172 103.05 293.564 100.071 293.564 100.071L305.926 107.742L311.04 111.577V117.983L317.445 118.826L319.567 114.991L325.116 117.547L324.68 120.961L311.896 124.375L319.145 133.745L334.486 142.272L340.892 150.799L350.262 151.656L352.397 147.386L355.811 146.543L344.768 138.029L337.968 137.172L343.516 135.472L338.389 128.223L345.638 127.788L355.022 132.915L357.157 143.143L361.849 148.678L365.684 161.04L375.055 167.84V181.903L384.86 188.308L384.439 192.987L383.16 198.535L385.717 206.206L386.574 210.041L393.809 211.319L397.223 204.071L399.317 199.433Z" fill="#48B08B" stroke="#263238" stroke-miterlimit="10"/>
<path d="M404.852 156.484V158.932L402.731 165.732L404.009 171.703L408.688 173.389V181.549L403.56 179.414L402.282 202.439L397.168 211.823L400.582 223.75L406.117 228.863V251.861L411.666 269.772L417.636 283.372L427.442 285.929L430.856 277.402L432.216 276.314C433.123 268.905 433.577 261.447 433.576 253.983C433.642 219.388 423.664 185.518 404.852 156.484V156.484Z" fill="#48B08B" stroke="#263238" stroke-miterlimit="10"/>
<path d="M306.388 153.819L278.25 141.443L265.887 141.878L262.895 149.97L257.782 144.435L248.411 146.57L247.555 160.632L255.225 166.181L260.774 158.075L267.166 164.467L280.371 175.987L282.942 188.349L294.026 202.411L311.923 199.433L311.502 193.027L307.667 185.792L306.81 168.738L311.067 161.489L306.388 153.819Z" fill="#48B08B" stroke="#263238" stroke-miterlimit="10"/>
<path d="M329.4 163.189L323.008 161.489L317.472 166.181L320.451 178.543H325.986L329.4 163.189Z" fill="#48B08B" stroke="#263238" stroke-miterlimit="10"/>
<path d="M369.044 171.295L354.56 163.611L351.568 158.497L348.154 159.775L351.146 168.303L353.703 179.387L360.095 181.943L361.373 180.243L357.538 173.851L368.622 178.108L369.044 171.295Z" fill="#48B08B" stroke="#263238" stroke-miterlimit="10"/>
<path d="M244.563 325.192L242.863 326.892L255.647 330.727L260.774 336.698L268.866 337.555L271.858 332.863L262.052 331.149L244.563 325.192Z" fill="#48B08B" stroke="#263238" stroke-miterlimit="10"/>
<path d="M282.507 333.284L273.558 335.841L274.836 339.255H285.92L288.056 335.841L284.22 336.276L282.507 333.284Z" fill="#48B08B" stroke="#263238" stroke-miterlimit="10"/>
<path d="M221.728 49.7378C219.01 49.745 216.405 50.83 214.485 52.7549C212.566 54.6797 211.488 57.2873 211.488 60.0058C211.488 65.677 221.756 78.4338 221.756 78.4338C221.756 78.4338 232.024 65.677 232.024 60.0058C232.024 58.6551 231.757 57.3177 231.239 56.0701C230.722 54.8226 229.963 53.6895 229.007 52.7356C228.05 51.7818 226.915 51.026 225.666 50.5116C224.417 49.9972 223.079 49.7343 221.728 49.7378V49.7378ZM221.592 64.0858C220.758 64.0858 219.943 63.8386 219.25 63.3753C218.557 62.912 218.016 62.2536 217.697 61.4832C217.378 60.7128 217.295 59.8651 217.457 59.0473C217.62 58.2295 218.022 57.4783 218.611 56.8887C219.201 56.299 219.952 55.8975 220.77 55.7348C221.588 55.5722 222.435 55.6556 223.206 55.9747C223.976 56.2938 224.635 56.8342 225.098 57.5275C225.561 58.2209 225.808 59.036 225.808 59.8698C225.808 60.988 225.364 62.0603 224.574 62.851C223.783 63.6416 222.71 64.0858 221.592 64.0858V64.0858Z" fill="#263238"/>
<path d="M364.855 97.6778C362.132 97.6778 359.52 98.7596 357.594 100.685C355.669 102.611 354.587 105.223 354.587 107.946C354.587 113.617 364.855 126.374 364.855 126.374C364.855 126.374 375.123 113.617 375.123 107.946C375.123 105.223 374.041 102.611 372.115 100.685C370.19 98.7596 367.578 97.6778 364.855 97.6778V97.6778ZM364.719 112.026C363.885 112.026 363.07 111.779 362.377 111.315C361.683 110.852 361.143 110.194 360.824 109.423C360.505 108.653 360.421 107.805 360.584 106.987C360.747 106.169 361.148 105.418 361.738 104.829C362.327 104.239 363.079 103.837 363.896 103.675C364.714 103.512 365.562 103.596 366.332 103.915C367.103 104.234 367.761 104.774 368.224 105.468C368.688 106.161 368.935 106.976 368.935 107.81C368.935 108.928 368.491 110 367.7 110.791C366.909 111.582 365.837 112.026 364.719 112.026V112.026Z" fill="#263238"/>
<path d="M292.775 390.268C290.052 390.268 287.44 391.35 285.514 393.276C283.589 395.201 282.507 397.813 282.507 400.536C282.507 406.207 292.775 418.964 292.775 418.964C292.775 418.964 303.043 406.207 303.043 400.536C303.043 397.813 301.961 395.201 300.035 393.276C298.11 391.35 295.498 390.268 292.775 390.268V390.268ZM292.625 404.589C291.792 404.586 290.978 404.337 290.287 403.872C289.595 403.407 289.057 402.748 288.74 401.977C288.423 401.206 288.341 400.359 288.506 399.542C288.67 398.725 289.072 397.975 289.662 397.387C290.253 396.799 291.004 396.399 291.821 396.237C292.639 396.075 293.486 396.16 294.255 396.479C295.025 396.799 295.683 397.339 296.145 398.032C296.608 398.725 296.855 399.54 296.855 400.373C296.855 400.928 296.745 401.477 296.533 401.99C296.32 402.502 296.008 402.967 295.615 403.359C295.222 403.751 294.756 404.061 294.243 404.272C293.73 404.483 293.18 404.591 292.625 404.589V404.589Z" fill="#263238"/>
<path d="M219.743 265.379C217.02 265.379 214.408 266.461 212.482 268.387C210.557 270.312 209.475 272.924 209.475 275.647C209.475 281.319 219.743 294.062 219.743 294.062C219.743 294.062 230.011 281.319 230.011 275.647C230.011 274.299 229.745 272.964 229.229 271.718C228.713 270.472 227.957 269.34 227.003 268.387C226.05 267.433 224.918 266.677 223.672 266.161C222.426 265.645 221.091 265.379 219.743 265.379V265.379ZM219.648 279.727C218.811 279.727 217.993 279.479 217.298 279.015C216.602 278.55 216.06 277.889 215.74 277.116C215.42 276.344 215.336 275.493 215.499 274.673C215.663 273.852 216.065 273.099 216.657 272.507C217.248 271.916 218.002 271.513 218.822 271.349C219.643 271.186 220.493 271.27 221.266 271.59C222.039 271.91 222.7 272.452 223.164 273.148C223.629 273.844 223.877 274.661 223.877 275.498C223.879 276.054 223.771 276.605 223.559 277.119C223.347 277.632 223.036 278.099 222.642 278.493C222.249 278.886 221.782 279.197 221.268 279.409C220.754 279.621 220.204 279.729 219.648 279.727V279.727Z" fill="#263238"/>
<path d="M491.718 128.873L414.978 108.491L433.346 132.182L491.718 128.873Z" fill="white" stroke="#263238" stroke-linecap="round" stroke-linejoin="round"/>
<path d="M433.346 132.182L432.772 148.122L491.718 128.874L433.346 132.182Z" fill="white" stroke="#263238" stroke-linecap="round" stroke-linejoin="round"/>
<path d="M440.296 140.145L432.772 148.122L491.718 128.874L440.296 140.145Z" fill="white" stroke="#263238" stroke-linecap="round" stroke-linejoin="round"/>
<path d="M491.718 128.874L440.296 140.145L453.701 163.502L491.718 128.874Z" fill="white" stroke="#263238" stroke-linecap="round" stroke-linejoin="round"/>
<path d="M420.714 144.467L418.74 144.734" stroke="#263238" stroke-linecap="round" stroke-linejoin="round"/>
<path d="M414.791 145.294C371.012 151.537 97.4525 192.955 40.3208 260.238C-10.4747 320.064 73.9355 336.818 93.6775 339.846" stroke="#263238" stroke-linecap="round" stroke-linejoin="round" stroke-dasharray="2.99 2.99"/>
<path d="M95.5449 340.126C96.8121 340.312 97.5191 340.379 97.5191 340.379" stroke="#263238" stroke-linecap="round" stroke-linejoin="round"/>
</svg>
