<svg width="312" height="335" viewBox="0 0 312 335" fill="none" xmlns="http://www.w3.org/2000/svg">
<path d="M160.159 333.955C130.491 330.256 95.9972 315.949 80.1485 287.333C56.2016 244.125 19.3656 247.741 3.35362 163.395C0.960948 151.093 -0.15757 138.552 0.0178149 125.994C0.118333 119.851 0.592478 113.721 1.43731 107.642C8.8471 54.0346 44.0933 17.9614 86.6073 4.72649C142.599 -12.7174 179.23 22.0579 201.303 45.0989C223.376 68.1399 292.151 85.0361 308.518 167.822C311.058 180.451 312.216 193.349 311.967 206.258C311.257 235.714 302.137 267.841 283.038 290.072C281.618 291.737 280.132 293.36 278.58 294.941C248.579 325.852 200.607 338.982 160.159 333.955Z" fill="white"/>
<path opacity="0.7" d="M160.159 333.955C130.491 330.256 95.9972 315.949 80.1485 287.333C56.2016 244.125 19.3656 247.741 3.35362 163.395C0.960948 151.093 -0.15757 138.552 0.0178149 125.994C0.118333 119.851 0.592478 113.721 1.43731 107.642C8.8471 54.0346 44.0933 17.9614 86.6073 4.72649C142.599 -12.7174 179.23 22.0579 201.303 45.0989C223.376 68.1399 292.151 85.0361 308.518 167.822C311.058 180.451 312.216 193.349 311.967 206.258C311.257 235.714 302.137 267.841 283.038 290.072C281.618 291.737 280.132 293.36 278.58 294.941C248.579 325.852 200.607 338.982 160.159 333.955Z" fill="white"/>
<path d="M143.298 63.9103C143.298 63.9103 112.749 61.0106 108.543 75.7519C104.337 90.4933 119.069 102.878 123.563 105.246C125.677 113.212 125.025 121.659 121.715 129.207C116.18 142.111 109.548 161.081 80.6622 187.41C51.7765 213.738 31.9377 224.529 27.2004 254.023C22.4632 283.517 36.675 295.105 75.6477 295.37C114.62 295.636 178.065 249.552 193.894 194.78C209.724 140.009 205.218 117.377 204.432 97.6098C203.646 77.843 192.288 59.4163 172.265 57.3252C152.241 55.2342 143.298 63.9103 143.298 63.9103Z" fill="#48B08B" stroke="#263238" stroke-linecap="round" stroke-linejoin="round"/>
<path d="M150.381 86.8078C150.381 86.8078 118.41 76.9764 116.434 85.3291C114.459 93.6817 136.608 97.136 136.608 92.7113C136.608 88.2866 124.8 88.2981 124.8 88.2981" stroke="#263238" stroke-miterlimit="10"/>
<path d="M180.873 62.7088C180.873 62.7088 154.806 61.7268 153.327 71.073C151.848 80.4192 189.238 109.428 203.993 113.368" stroke="#151A1D" stroke-miterlimit="10"/>
<path d="M172.022 62.709C172.022 62.709 163.172 68.1157 166.615 74.5159C170.058 80.9162 188.741 89.2688 198.089 89.2688" stroke="#151A1D" stroke-miterlimit="10"/>
<path d="M132.044 147.633C142.646 147.015 153.275 147.015 163.876 147.633C180.827 148.673 186.708 155.247 186.708 155.247C186.708 155.247 161.103 259.372 158.677 278.746C156.251 298.12 155.915 313 155.915 313H92.2166C92.2166 313 107.78 246.571 114.008 214.408C120.236 182.246 132.044 147.633 132.044 147.633Z" fill="#151A1D" stroke="#263238" stroke-linecap="round" stroke-linejoin="round"/>
<path d="M140.144 150.545C140.144 150.545 135.395 170.554 135.395 182.396C135.395 194.238 143.564 209.522 156.99 204.52C170.416 199.517 172.53 185.342 172.53 176.1C172.53 166.857 172.01 154.253 172.01 154.253C172.01 154.253 165.424 159.521 155.153 156.09C144.881 152.659 140.144 150.545 140.144 150.545Z" fill="white"/>
<path d="M172.484 170.554C172.346 162.467 172.011 154.23 172.011 154.23C172.011 154.23 165.425 159.498 155.153 156.067C144.881 152.636 140.132 150.545 140.132 150.545C140.132 150.545 137.948 159.787 136.539 169.376C139.52 174.217 144.916 178.341 154.772 177.786C162.698 177.336 168.359 174.529 172.484 170.554Z" fill="#48B08B"/>
<path opacity="0.5" d="M172.484 170.554C172.346 162.467 172.011 154.23 172.011 154.23C172.011 154.23 165.425 159.498 155.153 156.067C144.881 152.636 140.132 150.545 140.132 150.545C140.132 150.545 137.948 159.787 136.539 169.376C139.52 174.217 144.916 178.341 154.772 177.786C162.698 177.336 168.359 174.529 172.484 170.554Z" fill="white"/>
<path d="M140.144 150.545C140.144 150.545 135.395 170.554 135.395 182.396C135.395 194.238 143.564 209.522 156.99 204.52C170.416 199.517 172.53 185.342 172.53 176.1C172.53 166.857 172.01 154.253 172.01 154.253C172.01 154.253 165.424 159.521 155.153 156.09C144.881 152.659 140.144 150.545 140.144 150.545Z" stroke="#263238" stroke-linecap="round" stroke-linejoin="round"/>
<path d="M170.693 158.435C170.693 158.435 164.373 166.869 162.524 175.291C160.676 183.713 163.576 188.726 163.576 188.726" stroke="#263238" stroke-linecap="round" stroke-linejoin="round"/>
<path d="M145.366 311.163C145.101 307.212 144.835 294.573 153.004 273.778C161.173 252.983 167.481 221.894 169.064 196.374C170.647 170.854 171.964 154.241 171.964 154.241C171.964 149.493 173.802 146.605 187.759 148.707C201.717 150.81 233.318 155.293 233.064 159.509C232.809 163.726 214.577 222.703 212.52 238.242C210.463 253.78 210.937 260.088 218.84 256.137C226.743 252.186 237.801 245.601 237.801 245.601V257.442C237.801 257.442 209.886 293.256 201.717 298.79C193.548 304.324 193.814 303.261 191.711 296.941C189.608 290.622 189.608 268.776 189.608 268.776C180.723 293.129 181.196 307.062 182.178 313H145.54C145.505 312.422 145.459 311.868 145.366 311.163ZM201.44 222.853L211.838 184.151ZM53.2671 313H101.206C102.777 306.334 110.01 275.881 115.383 259.291C121.437 240.598 129.341 217.423 130.924 203.468C132.507 189.512 139.092 152.381 139.092 152.381C140.144 145.276 139.092 146.062 139.092 146.062C139.092 146.062 88.5193 146.847 84.7872 147.113C81.0552 147.379 82.6843 172.656 82.6843 208.736C82.7306 241.881 57.392 303.238 53.2671 313ZM91.9509 212.421L100.374 201.365Z" fill="white"/>
<path d="M212.566 238.231C212.971 235.227 213.976 230.617 215.328 225.095L205.68 223.281C205.68 223.281 172.669 282.085 156.158 294.47C152.461 297.242 148.867 299.761 145.655 302.117C145.315 305.12 145.234 308.147 145.413 311.163C145.413 311.868 145.505 312.457 145.54 313H182.225C181.243 307.062 180.769 293.129 189.654 268.776C189.654 268.776 189.654 290.622 191.757 296.942C193.86 303.261 193.606 304.324 201.763 298.79C209.92 293.257 237.801 257.443 237.801 257.443V245.601C237.801 245.601 226.744 252.186 218.84 256.126C210.937 260.065 210.452 253.758 212.566 238.231Z" fill="#48B08B"/>
<path d="M85.4805 225.857L77.9008 241.015C70.3328 271.872 56.2481 305.941 53.2671 313H64.6828L85.4805 225.857Z" fill="#48B08B"/>
<path opacity="0.5" d="M212.566 238.231C212.971 235.227 213.976 230.617 215.328 225.095L205.68 223.281C205.68 223.281 172.669 282.085 156.158 294.47C152.461 297.242 148.867 299.761 145.655 302.117C145.315 305.12 145.234 308.147 145.413 311.163C145.413 311.868 145.505 312.457 145.54 313H182.225C181.243 307.062 180.769 293.129 189.654 268.776C189.654 268.776 189.654 290.622 191.757 296.942C193.86 303.261 193.606 304.324 201.763 298.79C209.92 293.257 237.801 257.443 237.801 257.443V245.601C237.801 245.601 226.744 252.186 218.84 256.126C210.937 260.065 210.452 253.758 212.566 238.231Z" fill="white"/>
<path opacity="0.5" d="M85.4805 225.857L77.9008 241.015C70.3328 271.872 56.2481 305.941 53.2671 313H64.6828L85.4805 225.857Z" fill="white"/>
<path d="M201.44 222.853L211.838 184.151M91.9509 212.421L100.374 201.365M145.366 311.163C145.101 307.212 144.835 294.573 153.004 273.778C161.173 252.983 167.481 221.894 169.064 196.374C170.647 170.854 171.964 154.241 171.964 154.241C171.964 149.493 173.802 146.605 187.759 148.707C201.717 150.81 233.318 155.293 233.064 159.509C232.809 163.726 214.577 222.703 212.52 238.242C210.463 253.78 210.937 260.088 218.84 256.137C226.743 252.186 237.801 245.601 237.801 245.601V257.442C237.801 257.442 209.886 293.256 201.717 298.79C193.548 304.324 193.814 303.261 191.711 296.941C189.608 290.622 189.608 268.776 189.608 268.776C180.723 293.129 181.196 307.062 182.178 313H145.54C145.505 312.422 145.459 311.868 145.366 311.163ZM53.2671 313H101.206C102.777 306.334 110.01 275.881 115.383 259.291C121.437 240.598 129.341 217.423 130.924 203.468C132.507 189.512 139.092 152.381 139.092 152.381C140.144 145.276 139.092 146.062 139.092 146.062C139.092 146.062 88.5193 146.847 84.7872 147.113C81.0552 147.379 82.6843 172.656 82.6843 208.736C82.7306 241.881 57.392 303.238 53.2671 313Z" stroke="#263238" stroke-linecap="round" stroke-linejoin="round"/>
<path d="M136.458 145.796L115.649 183.193L124.072 194.78L114.331 201.619L108.543 276.932" stroke="#263238" stroke-linecap="round" stroke-linejoin="round"/>
<path d="M179.694 150.822L186.084 189.235L177.314 195.947L187.632 205.224L161.831 266.615" stroke="#263238" stroke-linecap="round" stroke-linejoin="round"/>
<path d="M112.748 255.34C112.748 255.34 126.186 249.807 134.078 243.233C141.969 236.659 155.938 217.158 158.342 217.424C160.745 217.69 174.934 227.96 182.051 230.329C189.169 232.697 194.426 232.697 194.16 234.28C193.894 235.862 191.006 237.434 185.471 237.434C179.937 237.434 164.928 229.531 164.928 229.531C164.928 229.531 173.097 240.068 171.779 241.385C166.62 245.439 160.953 248.803 154.922 251.389C148.601 253.758 144.384 255.872 143.067 255.606C141.75 255.34 142.016 252.706 142.813 251.921L145.181 249.552C145.181 249.552 139.589 253.503 136.712 253.503H133.812L111.166 272.716L112.748 255.34Z" fill="white"/>
<path d="M191.815 236.417H191.584C179.163 235.562 162.051 225.292 162.051 225.292L164.893 229.554C164.893 229.554 179.914 237.457 185.437 237.457C187.61 237.526 189.776 237.173 191.815 236.417V236.417Z" fill="#48B08B"/>
<path d="M164.616 239.386C162.478 241.107 159.058 237.249 159.058 237.249C159.058 237.249 159.913 245.809 157.348 246.237C154.783 246.664 151.351 244.099 151.351 244.099C151.351 244.099 151.351 249.656 148.786 249.656C146.221 249.656 142.374 241.569 142.374 241.569C142.374 241.569 143.298 245.636 140.652 248.409C138.006 251.181 132.957 250.546 132.957 250.546L112.841 265.056L111.686 266.396L111.119 272.704L133.812 253.503H136.701C139.601 253.503 145.135 249.552 145.135 249.552L142.767 251.921C141.969 252.706 141.704 255.386 143.021 255.606C144.338 255.825 148.555 253.757 154.876 251.389C160.907 248.803 166.574 245.439 171.733 241.384C173.051 240.067 164.882 229.531 164.882 229.531C164.882 229.531 166.753 237.676 164.616 239.386Z" fill="#48B08B"/>
<g opacity="0.5">
<path d="M191.815 236.417H191.584C179.163 235.562 162.051 225.292 162.051 225.292L164.893 229.554C164.893 229.554 179.914 237.457 185.437 237.457C187.61 237.526 189.776 237.173 191.815 236.417V236.417Z" fill="white"/>
<path d="M164.616 239.386C162.478 241.107 159.058 237.249 159.058 237.249C159.058 237.249 159.913 245.809 157.348 246.237C154.783 246.664 151.351 244.099 151.351 244.099C151.351 244.099 151.351 249.656 148.786 249.656C146.221 249.656 142.374 241.569 142.374 241.569C142.374 241.569 143.298 245.636 140.652 248.409C138.006 251.181 132.957 250.546 132.957 250.546L112.841 265.056L111.686 266.396L111.119 272.704L133.812 253.503H136.701C139.601 253.503 145.135 249.552 145.135 249.552L142.767 251.921C141.969 252.706 141.704 255.386 143.021 255.606C144.338 255.825 148.555 253.757 154.876 251.389C160.907 248.803 166.574 245.439 171.733 241.384C173.051 240.067 164.882 229.531 164.882 229.531C164.882 229.531 166.753 237.676 164.616 239.386Z" fill="white"/>
</g>
<path d="M145.147 249.553L143.298 245.602" stroke="#263238" stroke-linecap="round" stroke-linejoin="round"/>
<path d="M150.15 240.599C150.15 240.599 155.419 250.338 154.887 251.389" stroke="#263238" stroke-linecap="round" stroke-linejoin="round"/>
<path d="M157.256 233.482C157.256 233.482 165.425 245.035 164.107 246.918" stroke="#263238" stroke-linecap="round" stroke-linejoin="round"/>
<path d="M112.748 255.34C112.748 255.34 126.186 249.807 134.078 243.233C141.969 236.659 155.938 217.158 158.342 217.424C160.745 217.69 174.934 227.96 182.051 230.329C189.169 232.697 194.426 232.697 194.16 234.28C193.894 235.862 191.006 237.434 185.471 237.434C179.937 237.434 164.928 229.531 164.928 229.531C164.928 229.531 173.097 240.068 171.779 241.385C166.62 245.439 160.953 248.803 154.922 251.389C148.601 253.758 144.384 255.872 143.067 255.606C141.75 255.34 142.016 252.706 142.813 251.921L145.181 249.552C145.181 249.552 139.589 253.503 136.712 253.503H133.812L111.166 272.716L112.748 255.34Z" stroke="#263238" stroke-linecap="round" stroke-linejoin="round"/>
<path d="M89.5822 146.594C89.5822 146.594 80.8818 145.796 78.779 145.796C76.6761 145.796 73.5102 147.379 73.0018 154.484C72.4934 161.589 37.9114 294.573 37.9114 297.993C37.9114 301.412 43.1455 302.614 59.3215 298.524C72.9671 295.058 113.5 281.415 113.5 281.415L117.081 252.66L74.8852 261.139L95.4287 200.834" fill="white"/>
<path d="M114.736 271.814C111.755 272.611 64.544 285.285 55.5548 288.277C46.3113 291.373 65.8728 275.892 59.1713 276.412C52.4698 276.932 44.7169 286.209 44.7169 286.209L62.6722 198.107C52.3427 239.64 37.9114 295.786 37.9114 297.993C37.9114 301.459 43.1455 302.614 59.3215 298.524C72.9671 295.058 113.5 281.415 113.5 281.415L114.736 271.814Z" fill="#48B08B"/>
<path opacity="0.5" d="M114.736 271.814C111.755 272.611 64.544 285.285 55.5548 288.277C46.3113 291.373 65.8728 275.892 59.1713 276.412C52.4698 276.932 44.7169 286.209 44.7169 286.209L62.6722 198.107C52.3427 239.64 37.9114 295.786 37.9114 297.993C37.9114 301.459 43.1455 302.614 59.3215 298.524C72.9671 295.058 113.5 281.415 113.5 281.415L114.736 271.814Z" fill="white"/>
<path d="M89.5822 146.594C89.5822 146.594 80.8818 145.796 78.779 145.796C76.6761 145.796 73.5102 147.379 73.0018 154.484C72.4934 161.589 37.9114 294.573 37.9114 297.993C37.9114 301.412 43.1455 302.614 59.3215 298.524C72.9671 295.058 113.5 281.415 113.5 281.415L117.081 252.66L74.8852 261.139L95.4287 200.834" stroke="#263238" stroke-linecap="round" stroke-linejoin="round"/>
<path d="M201.462 204.739L167.608 278.792C167.4 279.246 167.309 279.744 167.343 280.242C167.376 280.74 167.534 281.222 167.802 281.644C168.069 282.065 168.438 282.413 168.875 282.655C169.311 282.898 169.801 283.027 170.3 283.032L225.16 283.494C225.725 283.501 226.28 283.347 226.761 283.05C227.242 282.754 227.628 282.327 227.876 281.819L263.22 208.944C263.439 208.494 263.541 207.996 263.517 207.497C263.494 206.997 263.345 206.511 263.086 206.084C262.826 205.656 262.463 205.301 262.03 205.05C261.598 204.798 261.109 204.66 260.609 204.646L204.293 202.994C203.702 202.975 203.119 203.131 202.616 203.441C202.112 203.751 201.711 204.202 201.462 204.739Z" fill="#263238" stroke="#263238" stroke-linecap="round" stroke-linejoin="round"/>
<path d="M179.151 257.154L176.447 263.08" stroke="white" stroke-linecap="round" stroke-linejoin="round"/>
<path d="M213.779 204.381L205.402 204.126C204.814 204.112 204.234 204.27 203.735 204.583C203.236 204.895 202.839 205.347 202.595 205.882L181.185 252.637" stroke="white" stroke-linecap="round" stroke-linejoin="round"/>
<path d="M220.839 204.589L216.402 204.45" stroke="white" stroke-linecap="round" stroke-linejoin="round"/>
<path d="M252.428 247.923C252.428 247.923 245.877 250.753 240.874 252.694C235.871 254.635 238.748 256.414 240.701 256.414C242.653 256.414 250.256 254.104 253.087 252.348C255.918 250.592 255.606 247.392 252.428 247.923Z" fill="#48B08B"/>
<path opacity="0.5" d="M252.428 247.923C252.428 247.923 245.877 250.753 240.874 252.694C235.871 254.635 238.748 256.414 240.701 256.414C242.653 256.414 250.256 254.104 253.087 252.348C255.918 250.592 255.606 247.392 252.428 247.923Z" fill="white"/>
<path d="M252.428 247.923C252.428 247.923 245.877 250.753 240.874 252.694C235.871 254.635 238.748 256.414 240.701 256.414C242.653 256.414 250.256 254.104 253.087 252.348C255.918 250.592 255.606 247.392 252.428 247.923Z" stroke="#263238" stroke-linecap="round" stroke-linejoin="round"/>
<path d="M256.045 241.049C256.045 241.049 247.148 244.896 240.412 247.53C233.676 250.164 237.535 252.579 240.181 252.579C242.827 252.579 253.156 249.46 257.004 247.057C260.852 244.654 260.366 240.321 256.045 241.049Z" fill="#48B08B"/>
<path opacity="0.5" d="M256.045 241.049C256.045 241.049 247.148 244.896 240.412 247.53C233.676 250.164 237.535 252.579 240.181 252.579C242.827 252.579 253.156 249.46 257.004 247.057C260.852 244.654 260.366 240.321 256.045 241.049Z" fill="white"/>
<path d="M256.045 241.049C256.045 241.049 247.148 244.896 240.412 247.53C233.676 250.164 237.535 252.579 240.181 252.579C242.827 252.579 253.156 249.46 257.004 247.057C260.852 244.654 260.366 240.321 256.045 241.049Z" stroke="#263238" stroke-linecap="round" stroke-linejoin="round"/>
<path d="M255.779 234.626C255.779 234.626 246.027 238.831 238.656 241.731C231.284 244.631 235.501 247.265 238.39 247.265C241.279 247.265 252.613 243.799 256.877 241.2C261.14 238.6 260.517 233.864 255.779 234.626Z" fill="#48B08B"/>
<path opacity="0.5" d="M255.779 234.626C255.779 234.626 246.027 238.831 238.656 241.731C231.284 244.631 235.501 247.265 238.39 247.265C241.279 247.265 252.613 243.799 256.877 241.2C261.14 238.6 260.517 233.864 255.779 234.626Z" fill="white"/>
<path d="M255.779 234.626C255.779 234.626 246.027 238.831 238.656 241.731C231.284 244.631 235.501 247.265 238.39 247.265C241.279 247.265 252.613 243.799 256.877 241.2C261.14 238.6 260.517 233.864 255.779 234.626Z" stroke="#263238" stroke-linecap="round" stroke-linejoin="round"/>
<path d="M256.542 228.746C256.542 228.746 246.802 232.962 239.43 235.851C232.058 238.739 236.264 241.384 239.164 241.384C242.064 241.384 253.388 237.919 257.593 235.331C261.799 232.743 261.279 227.96 256.542 228.746Z" fill="#48B08B"/>
<path opacity="0.5" d="M256.542 228.746C256.542 228.746 246.802 232.962 239.43 235.851C232.058 238.739 236.264 241.384 239.164 241.384C242.064 241.384 253.388 237.919 257.593 235.331C261.799 232.743 261.279 227.96 256.542 228.746Z" fill="white"/>
<path d="M256.542 228.746C256.542 228.746 246.802 232.962 239.43 235.851C232.058 238.739 236.264 241.384 239.164 241.384C242.064 241.384 253.388 237.919 257.593 235.331C261.799 232.743 261.279 227.96 256.542 228.746Z" stroke="#263238" stroke-linecap="round" stroke-linejoin="round"/>
<path d="M157.256 83.3882C157.256 83.3882 138.295 95.5071 134.343 100.244C130.392 104.98 132.24 114.997 132.506 118.151C132.772 121.304 133.026 142.411 134.875 145.796C136.724 149.181 142.374 162.802 160.768 161.97C174.021 161.358 180.699 150.568 183.334 143.717C185.022 138.961 186.083 134.006 186.488 128.975C186.488 128.975 194.148 127.647 194.148 121.328C194.148 115.008 192.438 107.637 188.857 108.435C187.043 108.839 184.651 112.906 184.651 112.906C177.846 108.238 171.638 102.756 166.164 96.5815C157.787 86.8194 157.256 83.3882 157.256 83.3882Z" fill="white"/>
<path d="M156.066 94.3516C156.066 94.3516 173.397 117.295 184.651 112.836C177.847 108.168 171.639 102.686 166.164 96.512C157.741 86.773 157.21 83.3418 157.21 83.3418C157.21 83.3418 138.249 95.4607 134.298 100.197C133.399 101.347 132.764 102.68 132.437 104.102L156.066 94.3516Z" fill="#48B08B"/>
<path d="M193.895 117.434C193.7 119.5 193.198 121.525 192.404 123.441C190.255 128.155 184.697 127.3 184.697 127.3C184.697 127.3 181.231 145.265 176.609 150.822C171.988 156.378 159.07 161.092 146.233 154.68C133.396 148.268 135.106 132.43 135.106 132.43C135.106 132.43 142.813 132.43 145.805 125.151C148.798 117.873 144.95 114.453 137.244 114.892C135.441 114.961 133.72 115.66 132.379 116.868C132.437 117.365 132.483 117.804 132.518 118.15C132.784 121.316 133.038 142.411 134.887 145.796C136.735 149.181 142.385 162.802 160.78 161.97C174.033 161.358 180.711 150.567 183.345 143.717C185.034 138.961 186.095 134.005 186.5 128.975C186.5 128.975 194.16 127.647 194.16 121.327C194.141 120.026 194.053 118.726 193.895 117.434V117.434Z" fill="#48B08B"/>
<path opacity="0.5" d="M193.895 117.434C193.7 119.5 193.198 121.525 192.404 123.441C190.255 128.155 184.697 127.3 184.697 127.3C184.697 127.3 181.231 145.265 176.609 150.822C171.988 156.378 159.07 161.092 146.233 154.68C133.396 148.268 135.106 132.43 135.106 132.43C135.106 132.43 142.813 132.43 145.805 125.151C148.798 117.873 144.95 114.453 137.244 114.892C135.441 114.961 133.72 115.66 132.379 116.868C132.437 117.365 132.483 117.804 132.518 118.15C132.784 121.316 133.038 142.411 134.887 145.796C136.735 149.181 142.385 162.802 160.78 161.97C174.033 161.358 180.711 150.567 183.345 143.717C185.034 138.961 186.095 134.005 186.5 128.975C186.5 128.975 194.16 127.647 194.16 121.327C194.141 120.026 194.053 118.726 193.895 117.434V117.434Z" fill="white"/>
<path d="M172.243 129.683C177.627 127.439 180.172 121.256 177.927 115.873C175.683 110.491 169.5 107.946 164.116 110.19C158.733 112.434 156.188 118.616 158.432 123.999C160.676 129.382 166.86 131.926 172.243 129.683Z" fill="#48B08B"/>
<path opacity="0.5" d="M172.243 129.683C177.627 127.439 180.172 121.256 177.927 115.873C175.683 110.491 169.5 107.946 164.116 110.19C158.733 112.434 156.188 118.616 158.432 123.999C160.676 129.382 166.86 131.926 172.243 129.683Z" fill="white"/>
<path opacity="0.5" d="M156.066 94.3516C156.066 94.3516 173.397 117.295 184.651 112.836C177.847 108.168 171.639 102.686 166.164 96.512C157.741 86.773 157.21 83.3418 157.21 83.3418C157.21 83.3418 138.249 95.4607 134.298 100.197C133.399 101.347 132.764 102.68 132.437 104.102L156.066 94.3516Z" fill="white"/>
<path d="M157.256 83.3882C157.256 83.3882 138.295 95.5071 134.343 100.244C130.392 104.98 132.24 114.997 132.506 118.151C132.772 121.304 133.026 142.411 134.875 145.796C136.724 149.181 142.374 162.802 160.768 161.97C174.021 161.358 180.699 150.568 183.334 143.717C185.022 138.961 186.083 134.006 186.488 128.975C186.488 128.975 194.148 127.647 194.148 121.328C194.148 115.008 192.438 107.637 188.857 108.435C187.043 108.839 184.651 112.906 184.651 112.906C177.846 108.238 171.638 102.756 166.164 96.5815C157.787 86.8194 157.256 83.3882 157.256 83.3882Z" stroke="#263238" stroke-linecap="round" stroke-linejoin="round"/>
<path d="M138.826 127.358C144.786 127.358 149.618 122.527 149.618 116.568C149.618 110.609 144.786 105.778 138.826 105.778C132.866 105.778 128.035 110.609 128.035 116.568C128.035 122.527 132.866 127.358 138.826 127.358Z" fill="white"/>
<path d="M129.895 122.645C131.357 124.78 133.537 126.32 136.038 126.984C138.539 127.648 141.195 127.392 143.524 126.263C145.852 125.133 147.698 123.206 148.725 120.831C149.753 118.456 149.893 115.792 149.121 113.322C148.22 115.297 147.146 116.788 145.979 116.88C142.327 117.192 141.646 116.406 138.827 116.568C137.001 116.684 132.714 120.173 129.895 122.645Z" fill="#A3D7C5"/>
<path d="M138.826 127.358C144.786 127.358 149.618 122.527 149.618 116.568C149.618 110.609 144.786 105.778 138.826 105.778C132.866 105.778 128.035 110.609 128.035 116.568C128.035 122.527 132.866 127.358 138.826 127.358Z" stroke="#263238" stroke-linecap="round" stroke-linejoin="round"/>
<path d="M168.325 127.358C174.285 127.358 179.116 122.527 179.116 116.568C179.116 110.609 174.285 105.778 168.325 105.778C162.365 105.778 157.533 110.609 157.533 116.568C157.533 122.527 162.365 127.358 168.325 127.358Z" fill="white"/>
<path d="M168.325 127.37C171.188 127.367 173.933 126.227 175.957 124.202C177.98 122.177 179.117 119.431 179.117 116.568C179.117 115.417 178.929 114.274 178.562 113.183C174.818 119.872 170.254 116.383 165.679 115.921C162.929 115.644 160.341 118.671 158.631 121.316C159.518 123.132 160.897 124.661 162.611 125.732C164.324 126.802 166.304 127.37 168.325 127.37V127.37Z" fill="#A3D7C5"/>
<path d="M168.325 127.358C174.285 127.358 179.116 122.527 179.116 116.568C179.116 110.609 174.285 105.778 168.325 105.778C162.365 105.778 157.533 110.609 157.533 116.568C157.533 122.527 162.365 127.358 168.325 127.358Z" stroke="#263238" stroke-linecap="round" stroke-linejoin="round"/>
<path d="M149.618 112.362C149.618 112.362 154.102 108.411 158.053 112.362" stroke="#263238" stroke-linecap="round" stroke-linejoin="round"/>
<path d="M134.875 102.878C134.875 102.878 138.827 97.3441 145.147 98.6611" stroke="#263238" stroke-linecap="round" stroke-linejoin="round"/>
<path d="M159.104 98.1411C159.104 98.1411 165.425 95.507 171.479 102.612" stroke="#263238" stroke-linecap="round" stroke-linejoin="round"/>
<path d="M151.201 116.313C151.201 116.313 151.987 122.633 150.415 125.556C148.844 128.479 145.412 130.038 146.73 132.141C148.047 134.243 152.507 135.306 152.507 135.306" stroke="#263238" stroke-linecap="round" stroke-linejoin="round"/>
<path d="M151.467 141.326C151.467 141.326 158.053 142.908 162.525 138.16" stroke="#263238" stroke-linecap="round" stroke-linejoin="round"/>
<path d="M225 313L15 313" stroke="#263238" stroke-linecap="round" stroke-linejoin="round"/>
<path d="M244.745 313H234.022" stroke="#263238" stroke-linecap="round" stroke-linejoin="round"/>
<path d="M250.263 31.0001C242.495 31.0207 235.052 34.121 229.566 39.6214C224.081 45.1217 221 52.573 221 60.3413C221 76.547 250.341 113 250.341 113C250.341 113 279.682 76.547 279.682 60.3413C279.682 56.4816 278.921 52.6598 277.441 49.0949C275.962 45.53 273.794 42.292 271.061 39.5664C268.328 36.8408 265.085 34.6812 261.516 33.2112C257.947 31.7412 254.123 30.9899 250.263 31.0001V31.0001ZM249.875 72C247.492 72 245.163 71.2935 243.182 69.9697C241.201 68.6459 239.656 66.7644 238.745 64.563C237.833 62.3616 237.594 59.9393 238.059 57.6023C238.524 55.2654 239.671 53.1187 241.356 51.4339C243.041 49.749 245.188 48.6016 247.525 48.1368C249.862 47.6719 252.284 47.9105 254.485 48.8223C256.687 49.7342 258.568 51.2783 259.892 53.2595C261.216 55.2407 261.922 57.5699 261.922 59.9527C261.922 63.1478 260.653 66.2121 258.394 68.4714C256.134 70.7308 253.07 72 249.875 72V72Z" fill="#263238"/>
</svg>
