<svg width="357" height="336" viewBox="0 0 357 336" fill="none" xmlns="http://www.w3.org/2000/svg">
<path d="M183.245 334.455C149.394 330.756 110.035 316.449 91.9515 287.833C64.6274 244.625 22.5966 248.241 4.32657 163.895C1.59647 151.593 0.320209 139.052 0.520328 126.494C0.635021 120.351 1.17603 114.221 2.14001 108.142C10.5948 54.5346 50.8115 18.4614 99.3211 5.22649C163.21 -12.2174 205.006 22.5579 230.192 45.5989C255.378 68.6398 333.851 85.5361 352.526 168.322C355.426 180.951 356.746 193.849 356.462 206.758C355.652 236.214 345.246 268.341 323.453 290.572C321.833 292.237 320.138 293.86 318.367 295.441C284.135 326.352 229.398 339.482 183.245 334.455Z" fill="white"/>
<path opacity="0.7" d="M183.245 334.455C149.394 330.756 110.035 316.449 91.9515 287.833C64.6274 244.625 22.5966 248.241 4.32657 163.895C1.59647 151.593 0.320209 139.052 0.520328 126.494C0.635021 120.351 1.17603 114.221 2.14001 108.142C10.5948 54.5346 50.8115 18.4614 99.3211 5.22649C163.21 -12.2174 205.006 22.5579 230.192 45.5989C255.378 68.6398 333.851 85.5361 352.526 168.322C355.426 180.951 356.746 193.849 356.462 206.758C355.652 236.214 345.246 268.341 323.453 290.572C321.833 292.237 320.138 293.86 318.367 295.441C284.135 326.352 229.398 339.482 183.245 334.455Z" fill="white"/>
<path d="M144.298 63.9103C144.298 63.9103 113.749 61.0106 109.543 75.7519C105.337 90.4933 120.069 102.878 124.563 105.246C126.677 113.212 126.025 121.659 122.715 129.207C117.18 142.111 110.548 161.081 81.6622 187.41C52.7765 213.738 32.9377 224.529 28.2004 254.023C23.4632 283.517 37.675 295.105 76.6477 295.37C115.62 295.636 179.065 249.552 194.894 194.78C210.724 140.009 206.218 117.377 205.432 97.6098C204.646 77.843 193.288 59.4163 173.265 57.3252C153.241 55.2342 144.298 63.9103 144.298 63.9103Z" fill="#48B08B" stroke="#263238" stroke-linecap="round" stroke-linejoin="round"/>
<path d="M151.381 86.8081C151.381 86.8081 119.41 76.9766 117.434 85.3293C115.459 93.682 137.608 97.1363 137.608 92.7115C137.608 88.2868 125.8 88.2984 125.8 88.2984" stroke="#263238" stroke-miterlimit="10"/>
<path d="M181.873 62.7088C181.873 62.7088 155.806 61.7268 154.327 71.073C152.848 80.4192 190.238 109.428 204.993 113.368" stroke="#151A1D" stroke-miterlimit="10"/>
<path d="M173.022 62.7087C173.022 62.7087 164.172 68.1154 167.615 74.5157C171.058 80.9159 189.741 89.2686 199.089 89.2686" stroke="#151A1D" stroke-miterlimit="10"/>
<path d="M133.044 147.633C143.646 147.015 154.275 147.015 164.876 147.633C181.827 148.673 187.708 155.247 187.708 155.247C187.708 155.247 162.103 259.372 159.677 278.746C157.251 298.12 156.915 313 156.915 313H93.2166C93.2166 313 108.78 246.571 115.008 214.408C121.236 182.246 133.044 147.633 133.044 147.633Z" fill="#151A1D" stroke="#263238" stroke-linecap="round" stroke-linejoin="round"/>
<path d="M141.144 150.545C141.144 150.545 136.395 170.554 136.395 182.396C136.395 194.237 144.564 209.522 157.99 204.519C171.416 199.517 173.53 185.342 173.53 176.099C173.53 166.857 173.01 154.253 173.01 154.253C173.01 154.253 166.424 159.521 156.153 156.09C145.881 152.659 141.144 150.545 141.144 150.545Z" fill="white"/>
<path d="M173.484 170.554C173.346 162.467 173.011 154.23 173.011 154.23C173.011 154.23 166.425 159.498 156.153 156.067C145.881 152.636 141.132 150.545 141.132 150.545C141.132 150.545 138.948 159.787 137.539 169.376C140.52 174.216 145.916 178.341 155.772 177.786C163.698 177.336 169.359 174.528 173.484 170.554Z" fill="#48B08B"/>
<path opacity="0.5" d="M173.484 170.554C173.346 162.467 173.011 154.23 173.011 154.23C173.011 154.23 166.425 159.498 156.153 156.067C145.881 152.636 141.132 150.545 141.132 150.545C141.132 150.545 138.948 159.787 137.539 169.376C140.52 174.216 145.916 178.341 155.772 177.786C163.698 177.336 169.359 174.528 173.484 170.554Z" fill="white"/>
<path d="M141.144 150.545C141.144 150.545 136.395 170.554 136.395 182.396C136.395 194.237 144.564 209.522 157.99 204.519C171.416 199.517 173.53 185.342 173.53 176.099C173.53 166.857 173.01 154.253 173.01 154.253C173.01 154.253 166.424 159.521 156.153 156.09C145.881 152.659 141.144 150.545 141.144 150.545Z" stroke="#263238" stroke-linecap="round" stroke-linejoin="round"/>
<path d="M171.693 158.435C171.693 158.435 165.373 166.869 163.524 175.291C161.676 183.713 164.576 188.727 164.576 188.727" stroke="#263238" stroke-linecap="round" stroke-linejoin="round"/>
<path d="M146.366 311.163C146.101 307.212 145.835 294.573 154.004 273.778C162.173 252.983 168.481 221.895 170.064 196.375C171.647 170.854 172.964 154.242 172.964 154.242C172.964 149.493 174.802 146.605 188.759 148.708C202.717 150.81 234.318 155.293 234.064 159.51C233.809 163.726 215.577 222.703 213.52 238.242C211.463 253.78 211.937 260.088 219.84 256.137C227.743 252.186 238.801 245.601 238.801 245.601V257.443C238.801 257.443 210.886 293.256 202.717 298.79C194.548 304.324 194.814 303.261 192.711 296.942C190.608 290.622 190.608 268.776 190.608 268.776C181.723 293.129 182.196 307.062 183.178 313H146.54C146.505 312.422 146.459 311.868 146.366 311.163ZM202.44 222.854L212.838 184.152ZM54.2671 313H102.206C103.777 306.334 111.01 275.881 116.383 259.291C122.437 240.599 130.341 217.424 131.924 203.468C133.507 189.512 140.092 152.382 140.092 152.382C141.144 145.277 140.092 146.062 140.092 146.062C140.092 146.062 89.5193 146.848 85.7872 147.113C82.0552 147.379 83.6843 172.657 83.6843 208.736C83.7306 241.881 58.392 303.238 54.2671 313ZM92.9509 212.421L101.374 201.365Z" fill="white"/>
<path d="M213.566 238.23C213.971 235.227 214.976 230.617 216.328 225.095L206.68 223.281C206.68 223.281 173.669 282.085 157.158 294.469C153.461 297.242 149.867 299.76 146.655 302.117C146.315 305.12 146.234 308.146 146.413 311.163C146.413 311.868 146.505 312.457 146.54 313H183.225C182.243 307.062 181.769 293.129 190.654 268.776C190.654 268.776 190.654 290.622 192.757 296.942C194.86 303.261 194.606 304.324 202.763 298.79C210.92 293.256 238.801 257.443 238.801 257.443V245.601C238.801 245.601 227.744 252.186 219.84 256.126C211.937 260.065 211.452 253.757 213.566 238.23Z" fill="#48B08B"/>
<path d="M86.4805 225.857L78.9008 241.015C71.3328 271.872 57.2481 305.941 54.2671 313H65.6828L86.4805 225.857Z" fill="#48B08B"/>
<path opacity="0.5" d="M213.566 238.23C213.971 235.227 214.976 230.617 216.328 225.095L206.68 223.281C206.68 223.281 173.669 282.085 157.158 294.469C153.461 297.242 149.867 299.76 146.655 302.117C146.315 305.12 146.234 308.146 146.413 311.163C146.413 311.868 146.505 312.457 146.54 313H183.225C182.243 307.062 181.769 293.129 190.654 268.776C190.654 268.776 190.654 290.622 192.757 296.942C194.86 303.261 194.606 304.324 202.763 298.79C210.92 293.256 238.801 257.443 238.801 257.443V245.601C238.801 245.601 227.744 252.186 219.84 256.126C211.937 260.065 211.452 253.757 213.566 238.23Z" fill="white"/>
<path opacity="0.5" d="M86.4805 225.857L78.9008 241.015C71.3328 271.872 57.2481 305.941 54.2671 313H65.6828L86.4805 225.857Z" fill="white"/>
<path d="M202.44 222.854L212.838 184.152M92.9509 212.421L101.374 201.365M146.366 311.163C146.101 307.212 145.835 294.573 154.004 273.778C162.173 252.983 168.481 221.895 170.064 196.375C171.647 170.854 172.964 154.242 172.964 154.242C172.964 149.493 174.802 146.605 188.759 148.708C202.717 150.81 234.318 155.293 234.064 159.51C233.809 163.726 215.577 222.703 213.52 238.242C211.463 253.78 211.937 260.088 219.84 256.137C227.743 252.186 238.801 245.601 238.801 245.601V257.443C238.801 257.443 210.886 293.256 202.717 298.79C194.548 304.324 194.814 303.261 192.711 296.942C190.608 290.622 190.608 268.776 190.608 268.776C181.723 293.129 182.196 307.062 183.178 313H146.54C146.505 312.422 146.459 311.868 146.366 311.163ZM54.2671 313H102.206C103.777 306.334 111.01 275.881 116.383 259.291C122.437 240.599 130.341 217.424 131.924 203.468C133.507 189.512 140.092 152.382 140.092 152.382C141.144 145.277 140.092 146.062 140.092 146.062C140.092 146.062 89.5193 146.848 85.7872 147.113C82.0552 147.379 83.6843 172.657 83.6843 208.736C83.7306 241.881 58.392 303.238 54.2671 313Z" stroke="#263238" stroke-linecap="round" stroke-linejoin="round"/>
<path d="M137.458 145.797L116.649 183.193L125.072 194.78L115.331 201.62L109.543 276.932" stroke="#263238" stroke-linecap="round" stroke-linejoin="round"/>
<path d="M180.694 150.822L187.084 189.235L178.314 195.947L188.632 205.224L162.831 266.616" stroke="#263238" stroke-linecap="round" stroke-linejoin="round"/>
<path d="M113.748 255.34C113.748 255.34 127.186 249.806 135.078 243.233C142.969 236.659 156.938 217.158 159.342 217.424C161.745 217.69 175.934 227.96 183.051 230.328C190.169 232.697 195.426 232.697 195.16 234.279C194.894 235.862 192.006 237.433 186.471 237.433C180.937 237.433 165.928 229.531 165.928 229.531C165.928 229.531 174.097 240.067 172.779 241.384C167.62 245.439 161.953 248.803 155.922 251.389C149.601 253.757 145.384 255.872 144.067 255.606C142.75 255.34 143.016 252.706 143.813 251.92L146.181 249.552C146.181 249.552 140.589 253.503 137.712 253.503H134.812L112.166 272.715L113.748 255.34Z" fill="white"/>
<path d="M192.815 236.417H192.584C180.163 235.562 163.051 225.291 163.051 225.291L165.893 229.554C165.893 229.554 180.914 237.456 186.437 237.456C188.61 237.525 190.776 237.172 192.815 236.417V236.417Z" fill="#48B08B"/>
<path d="M165.616 239.386C163.478 241.107 160.058 237.249 160.058 237.249C160.058 237.249 160.913 245.809 158.348 246.237C155.783 246.664 152.351 244.099 152.351 244.099C152.351 244.099 152.351 249.656 149.786 249.656C147.221 249.656 143.374 241.569 143.374 241.569C143.374 241.569 144.298 245.636 141.652 248.409C139.006 251.181 133.957 250.546 133.957 250.546L113.841 265.056L112.686 266.396L112.119 272.704L134.812 253.503H137.701C140.601 253.503 146.135 249.552 146.135 249.552L143.767 251.921C142.969 252.706 142.704 255.386 144.021 255.606C145.338 255.825 149.555 253.757 155.876 251.389C161.907 248.803 167.574 245.439 172.733 241.384C174.051 240.067 165.882 229.531 165.882 229.531C165.882 229.531 167.753 237.676 165.616 239.386Z" fill="#48B08B"/>
<g opacity="0.5">
<path d="M192.815 236.417H192.584C180.163 235.562 163.051 225.291 163.051 225.291L165.893 229.554C165.893 229.554 180.914 237.456 186.437 237.456C188.61 237.525 190.776 237.172 192.815 236.417V236.417Z" fill="white"/>
<path d="M165.616 239.386C163.478 241.107 160.058 237.249 160.058 237.249C160.058 237.249 160.913 245.809 158.348 246.237C155.783 246.664 152.351 244.099 152.351 244.099C152.351 244.099 152.351 249.656 149.786 249.656C147.221 249.656 143.374 241.569 143.374 241.569C143.374 241.569 144.298 245.636 141.652 248.409C139.006 251.181 133.957 250.546 133.957 250.546L113.841 265.056L112.686 266.396L112.119 272.704L134.812 253.503H137.701C140.601 253.503 146.135 249.552 146.135 249.552L143.767 251.921C142.969 252.706 142.704 255.386 144.021 255.606C145.338 255.825 149.555 253.757 155.876 251.389C161.907 248.803 167.574 245.439 172.733 241.384C174.051 240.067 165.882 229.531 165.882 229.531C165.882 229.531 167.753 237.676 165.616 239.386Z" fill="white"/>
</g>
<path d="M146.147 249.552L144.298 245.601" stroke="#263238" stroke-linecap="round" stroke-linejoin="round"/>
<path d="M151.15 240.599C151.15 240.599 156.419 250.338 155.887 251.389" stroke="#263238" stroke-linecap="round" stroke-linejoin="round"/>
<path d="M158.256 233.482C158.256 233.482 166.425 245.035 165.107 246.918" stroke="#263238" stroke-linecap="round" stroke-linejoin="round"/>
<path d="M113.748 255.34C113.748 255.34 127.186 249.806 135.078 243.233C142.969 236.659 156.938 217.158 159.342 217.424C161.745 217.69 175.934 227.96 183.051 230.328C190.169 232.697 195.426 232.697 195.16 234.279C194.894 235.862 192.006 237.433 186.471 237.433C180.937 237.433 165.928 229.531 165.928 229.531C165.928 229.531 174.097 240.067 172.779 241.384C167.62 245.439 161.953 248.803 155.922 251.389C149.601 253.757 145.384 255.872 144.067 255.606C142.75 255.34 143.016 252.706 143.813 251.92L146.181 249.552C146.181 249.552 140.589 253.503 137.712 253.503H134.812L112.166 272.715L113.748 255.34Z" stroke="#263238" stroke-linecap="round" stroke-linejoin="round"/>
<path d="M90.5822 146.594C90.5822 146.594 81.8818 145.797 79.779 145.797C77.6761 145.797 74.5102 147.379 74.0018 154.484C73.4934 161.589 38.9114 294.573 38.9114 297.993C38.9114 301.413 44.1455 302.614 60.3215 298.525C73.9671 295.059 114.5 281.415 114.5 281.415L118.081 252.66L75.8852 261.14L96.4287 200.834" fill="white"/>
<path d="M115.736 271.814C112.755 272.612 65.544 285.285 56.5548 288.277C47.3113 291.373 66.8728 275.893 60.1713 276.412C53.4698 276.932 45.7169 286.209 45.7169 286.209L63.6722 198.108C53.3427 239.64 38.9114 295.787 38.9114 297.993C38.9114 301.459 44.1455 302.614 60.3215 298.525C73.9671 295.059 114.5 281.415 114.5 281.415L115.736 271.814Z" fill="#48B08B"/>
<path opacity="0.5" d="M115.736 271.814C112.755 272.612 65.544 285.285 56.5548 288.277C47.3113 291.373 66.8728 275.893 60.1713 276.412C53.4698 276.932 45.7169 286.209 45.7169 286.209L63.6722 198.108C53.3427 239.64 38.9114 295.787 38.9114 297.993C38.9114 301.459 44.1455 302.614 60.3215 298.525C73.9671 295.059 114.5 281.415 114.5 281.415L115.736 271.814Z" fill="white"/>
<path d="M90.5822 146.594C90.5822 146.594 81.8818 145.797 79.779 145.797C77.6761 145.797 74.5102 147.379 74.0018 154.484C73.4934 161.589 38.9114 294.573 38.9114 297.993C38.9114 301.413 44.1455 302.614 60.3215 298.525C73.9671 295.059 114.5 281.415 114.5 281.415L118.081 252.66L75.8852 261.14L96.4287 200.834" stroke="#263238" stroke-linecap="round" stroke-linejoin="round"/>
<path d="M202.462 204.739L168.608 278.792C168.4 279.246 168.309 279.744 168.343 280.242C168.376 280.74 168.534 281.222 168.802 281.644C169.069 282.065 169.438 282.413 169.875 282.655C170.311 282.898 170.801 283.027 171.3 283.032L226.16 283.494C226.725 283.501 227.28 283.347 227.761 283.05C228.242 282.754 228.628 282.327 228.876 281.819L264.22 208.944C264.439 208.494 264.541 207.996 264.517 207.497C264.494 206.997 264.345 206.511 264.086 206.084C263.826 205.656 263.463 205.301 263.03 205.05C262.598 204.798 262.109 204.66 261.609 204.646L205.293 202.994C204.702 202.975 204.119 203.131 203.616 203.441C203.112 203.751 202.711 204.202 202.462 204.739Z" fill="#263238" stroke="#263238" stroke-linecap="round" stroke-linejoin="round"/>
<path d="M180.151 257.154L177.447 263.08" stroke="white" stroke-linecap="round" stroke-linejoin="round"/>
<path d="M214.779 204.381L206.402 204.127C205.814 204.112 205.234 204.271 204.735 204.583C204.236 204.895 203.839 205.347 203.595 205.883L182.185 252.637" stroke="white" stroke-linecap="round" stroke-linejoin="round"/>
<path d="M221.839 204.589L217.402 204.45" stroke="white" stroke-linecap="round" stroke-linejoin="round"/>
<path d="M253.428 247.923C253.428 247.923 246.877 250.753 241.874 252.694C236.871 254.635 239.748 256.414 241.701 256.414C243.653 256.414 251.256 254.104 254.087 252.348C256.918 250.592 256.606 247.392 253.428 247.923Z" fill="#48B08B"/>
<path opacity="0.5" d="M253.428 247.923C253.428 247.923 246.877 250.753 241.874 252.694C236.871 254.635 239.748 256.414 241.701 256.414C243.653 256.414 251.256 254.104 254.087 252.348C256.918 250.592 256.606 247.392 253.428 247.923Z" fill="white"/>
<path d="M253.428 247.923C253.428 247.923 246.877 250.753 241.874 252.694C236.871 254.635 239.748 256.414 241.701 256.414C243.653 256.414 251.256 254.104 254.087 252.348C256.918 250.592 256.606 247.392 253.428 247.923Z" stroke="#263238" stroke-linecap="round" stroke-linejoin="round"/>
<path d="M257.045 241.049C257.045 241.049 248.148 244.896 241.412 247.53C234.676 250.164 238.535 252.579 241.181 252.579C243.827 252.579 254.156 249.46 258.004 247.057C261.852 244.654 261.366 240.321 257.045 241.049Z" fill="#48B08B"/>
<path opacity="0.5" d="M257.045 241.049C257.045 241.049 248.148 244.896 241.412 247.53C234.676 250.164 238.535 252.579 241.181 252.579C243.827 252.579 254.156 249.46 258.004 247.057C261.852 244.654 261.366 240.321 257.045 241.049Z" fill="white"/>
<path d="M257.045 241.049C257.045 241.049 248.148 244.896 241.412 247.53C234.676 250.164 238.535 252.579 241.181 252.579C243.827 252.579 254.156 249.46 258.004 247.057C261.852 244.654 261.366 240.321 257.045 241.049Z" stroke="#263238" stroke-linecap="round" stroke-linejoin="round"/>
<path d="M256.779 234.626C256.779 234.626 247.027 238.831 239.656 241.731C232.284 244.63 236.501 247.264 239.39 247.264C242.279 247.264 253.613 243.799 257.877 241.199C262.14 238.6 261.517 233.863 256.779 234.626Z" fill="#48B08B"/>
<path opacity="0.5" d="M256.779 234.626C256.779 234.626 247.027 238.831 239.656 241.731C232.284 244.63 236.501 247.264 239.39 247.264C242.279 247.264 253.613 243.799 257.877 241.199C262.14 238.6 261.517 233.863 256.779 234.626Z" fill="white"/>
<path d="M256.779 234.626C256.779 234.626 247.027 238.831 239.656 241.731C232.284 244.63 236.501 247.264 239.39 247.264C242.279 247.264 253.613 243.799 257.877 241.199C262.14 238.6 261.517 233.863 256.779 234.626Z" stroke="#263238" stroke-linecap="round" stroke-linejoin="round"/>
<path d="M257.542 228.745C257.542 228.745 247.802 232.962 240.43 235.85C233.058 238.739 237.264 241.384 240.164 241.384C243.064 241.384 254.388 237.918 258.593 235.331C262.799 232.743 262.279 227.96 257.542 228.745Z" fill="#48B08B"/>
<path opacity="0.5" d="M257.542 228.745C257.542 228.745 247.802 232.962 240.43 235.85C233.058 238.739 237.264 241.384 240.164 241.384C243.064 241.384 254.388 237.918 258.593 235.331C262.799 232.743 262.279 227.96 257.542 228.745Z" fill="white"/>
<path d="M257.542 228.745C257.542 228.745 247.802 232.962 240.43 235.85C233.058 238.739 237.264 241.384 240.164 241.384C243.064 241.384 254.388 237.918 258.593 235.331C262.799 232.743 262.279 227.96 257.542 228.745Z" stroke="#263238" stroke-linecap="round" stroke-linejoin="round"/>
<path d="M158.256 83.3884C158.256 83.3884 139.295 95.5073 135.343 100.244C131.392 104.981 133.24 114.997 133.506 118.151C133.772 121.305 134.026 142.412 135.875 145.797C137.724 149.182 143.374 162.802 161.768 161.97C175.021 161.358 181.699 150.568 184.334 143.717C186.022 138.962 187.083 134.006 187.488 128.976C187.488 128.976 195.148 127.647 195.148 121.328C195.148 115.008 193.438 107.638 189.857 108.435C188.043 108.839 185.651 112.906 185.651 112.906C178.846 108.238 172.638 102.756 167.164 96.5817C158.787 86.8196 158.256 83.3884 158.256 83.3884Z" fill="white"/>
<path d="M157.066 94.3518C157.066 94.3518 174.397 117.296 185.651 112.836C178.847 108.168 172.639 102.686 167.164 96.5122C158.741 86.7732 158.21 83.342 158.21 83.342C158.21 83.342 139.249 95.4609 135.298 100.198C134.399 101.347 133.764 102.68 133.437 104.102L157.066 94.3518Z" fill="#48B08B"/>
<path d="M194.895 117.434C194.7 119.5 194.198 121.525 193.404 123.442C191.255 128.155 185.697 127.3 185.697 127.3C185.697 127.3 182.231 145.265 177.609 150.822C172.988 156.379 160.07 161.092 147.233 154.68C134.396 148.269 136.106 132.43 136.106 132.43C136.106 132.43 143.813 132.43 146.805 125.152C149.798 117.873 145.95 114.454 138.244 114.893C136.441 114.962 134.72 115.661 133.379 116.868C133.437 117.365 133.483 117.804 133.518 118.151C133.784 121.316 134.038 142.411 135.887 145.796C137.735 149.181 143.385 162.802 161.78 161.97C175.033 161.358 181.711 150.568 184.345 143.717C186.034 138.961 187.095 134.006 187.5 128.976C187.5 128.976 195.16 127.647 195.16 121.328C195.141 120.026 195.053 118.726 194.895 117.434V117.434Z" fill="#48B08B"/>
<path opacity="0.5" d="M194.895 117.434C194.7 119.5 194.198 121.525 193.404 123.442C191.255 128.155 185.697 127.3 185.697 127.3C185.697 127.3 182.231 145.265 177.609 150.822C172.988 156.379 160.07 161.092 147.233 154.68C134.396 148.269 136.106 132.43 136.106 132.43C136.106 132.43 143.813 132.43 146.805 125.152C149.798 117.873 145.95 114.454 138.244 114.893C136.441 114.962 134.72 115.661 133.379 116.868C133.437 117.365 133.483 117.804 133.518 118.151C133.784 121.316 134.038 142.411 135.887 145.796C137.735 149.181 143.385 162.802 161.78 161.97C175.033 161.358 181.711 150.568 184.345 143.717C186.034 138.961 187.095 134.006 187.5 128.976C187.5 128.976 195.16 127.647 195.16 121.328C195.141 120.026 195.053 118.726 194.895 117.434V117.434Z" fill="white"/>
<path d="M173.243 129.683C178.627 127.439 181.172 121.256 178.927 115.874C176.683 110.491 170.5 107.947 165.116 110.19C159.733 112.434 157.188 118.617 159.432 124C161.676 129.382 167.86 131.927 173.243 129.683Z" fill="#48B08B"/>
<path opacity="0.5" d="M173.243 129.683C178.627 127.439 181.172 121.256 178.927 115.874C176.683 110.491 170.5 107.947 165.116 110.19C159.733 112.434 157.188 118.617 159.432 124C161.676 129.382 167.86 131.927 173.243 129.683Z" fill="white"/>
<path opacity="0.5" d="M157.066 94.3518C157.066 94.3518 174.397 117.296 185.651 112.836C178.847 108.168 172.639 102.686 167.164 96.5122C158.741 86.7732 158.21 83.342 158.21 83.342C158.21 83.342 139.249 95.4609 135.298 100.198C134.399 101.347 133.764 102.68 133.437 104.102L157.066 94.3518Z" fill="white"/>
<path d="M158.256 83.3884C158.256 83.3884 139.295 95.5073 135.343 100.244C131.392 104.981 133.24 114.997 133.506 118.151C133.772 121.305 134.026 142.412 135.875 145.797C137.724 149.182 143.374 162.802 161.768 161.97C175.021 161.358 181.699 150.568 184.334 143.717C186.022 138.962 187.083 134.006 187.488 128.976C187.488 128.976 195.148 127.647 195.148 121.328C195.148 115.008 193.438 107.638 189.857 108.435C188.043 108.839 185.651 112.906 185.651 112.906C178.846 108.238 172.638 102.756 167.164 96.5817C158.787 86.8196 158.256 83.3884 158.256 83.3884Z" stroke="#263238" stroke-linecap="round" stroke-linejoin="round"/>
<path d="M139.826 127.358C145.786 127.358 150.618 122.527 150.618 116.568C150.618 110.609 145.786 105.778 139.826 105.778C133.866 105.778 129.035 110.609 129.035 116.568C129.035 122.527 133.866 127.358 139.826 127.358Z" fill="white"/>
<path d="M130.895 122.645C132.357 124.78 134.537 126.319 137.038 126.983C139.539 127.647 142.195 127.391 144.524 126.262C146.852 125.133 148.698 123.206 149.725 120.831C150.753 118.456 150.893 115.791 150.121 113.322C149.22 115.297 148.146 116.787 146.979 116.88C143.327 117.192 142.646 116.406 139.827 116.568C138.001 116.683 133.714 120.172 130.895 122.645Z" fill="#A3D7C5"/>
<path d="M139.826 127.358C145.786 127.358 150.618 122.527 150.618 116.568C150.618 110.609 145.786 105.778 139.826 105.778C133.866 105.778 129.035 110.609 129.035 116.568C129.035 122.527 133.866 127.358 139.826 127.358Z" stroke="#263238" stroke-linecap="round" stroke-linejoin="round"/>
<path d="M169.325 127.358C175.285 127.358 180.116 122.527 180.116 116.568C180.116 110.609 175.285 105.778 169.325 105.778C163.365 105.778 158.533 110.609 158.533 116.568C158.533 122.527 163.365 127.358 169.325 127.358Z" fill="white"/>
<path d="M169.325 127.37C172.188 127.367 174.933 126.227 176.957 124.202C178.98 122.177 180.117 119.431 180.117 116.568C180.117 115.417 179.929 114.274 179.562 113.183C175.818 119.872 171.254 116.383 166.679 115.921C163.929 115.644 161.341 118.671 159.631 121.316C160.518 123.132 161.897 124.661 163.611 125.732C165.324 126.802 167.304 127.37 169.325 127.37V127.37Z" fill="#A3D7C5"/>
<path d="M169.325 127.358C175.285 127.358 180.116 122.527 180.116 116.568C180.116 110.609 175.285 105.778 169.325 105.778C163.365 105.778 158.533 110.609 158.533 116.568C158.533 122.527 163.365 127.358 169.325 127.358Z" stroke="#263238" stroke-linecap="round" stroke-linejoin="round"/>
<path d="M150.618 112.363C150.618 112.363 155.102 108.412 159.053 112.363" stroke="#263238" stroke-linecap="round" stroke-linejoin="round"/>
<path d="M135.875 102.878C135.875 102.878 139.827 97.3441 146.147 98.6611" stroke="#263238" stroke-linecap="round" stroke-linejoin="round"/>
<path d="M160.104 98.1413C160.104 98.1413 166.425 95.5073 172.479 102.612" stroke="#263238" stroke-linecap="round" stroke-linejoin="round"/>
<path d="M152.201 116.314C152.201 116.314 152.987 122.633 151.415 125.556C149.844 128.479 146.412 130.038 147.73 132.141C149.047 134.244 153.507 135.307 153.507 135.307" stroke="#263238" stroke-linecap="round" stroke-linejoin="round"/>
<path d="M152.467 141.326C152.467 141.326 159.053 142.908 163.525 138.16" stroke="#263238" stroke-linecap="round" stroke-linejoin="round"/>
<path d="M226 313L16 313" stroke="#263238" stroke-linecap="round" stroke-linejoin="round"/>
<path d="M245.745 313H235.022" stroke="#263238" stroke-linecap="round" stroke-linejoin="round"/>
<path d="M251.263 31.0001C243.495 31.0207 236.052 34.121 230.566 39.6214C225.081 45.1217 222 52.573 222 60.3413C222 76.547 251.341 113 251.341 113C251.341 113 280.682 76.547 280.682 60.3413C280.682 56.4816 279.921 52.6598 278.441 49.0949C276.962 45.53 274.794 42.292 272.061 39.5664C269.328 36.8408 266.085 34.6812 262.516 33.2112C258.947 31.7412 255.123 30.9899 251.263 31.0001V31.0001ZM250.875 72C248.492 72 246.163 71.2935 244.182 69.9697C242.201 68.6459 240.656 66.7644 239.745 64.563C238.833 62.3616 238.594 59.9393 239.059 57.6023C239.524 55.2654 240.671 53.1187 242.356 51.4339C244.041 49.749 246.188 48.6016 248.525 48.1368C250.862 47.6719 253.284 47.9105 255.485 48.8223C257.687 49.7342 259.568 51.2783 260.892 53.2595C262.216 55.2407 262.922 57.5699 262.922 59.9527C262.922 63.1478 261.653 66.2121 259.394 68.4714C257.134 70.7308 254.07 72 250.875 72V72Z" fill="#263238"/>
</svg>
