<svg width="356" height="335" viewBox="0 0 356 335" fill="none" xmlns="http://www.w3.org/2000/svg">
<path d="M182.745 333.955C148.894 330.256 109.535 315.949 91.4515 287.333C64.1274 244.125 22.0966 247.741 3.82657 163.395C1.09647 151.093 -0.179791 138.552 0.0203279 125.994C0.135021 119.851 0.676033 113.721 1.64001 107.642C10.0948 54.0346 50.3115 17.9614 98.8211 4.72649C162.71 -12.7174 204.506 22.0579 229.692 45.0989C254.878 68.1398 333.351 85.0361 352.026 167.822C354.926 180.451 356.246 193.349 355.962 206.258C355.152 235.714 344.746 267.841 322.953 290.072C321.333 291.737 319.638 293.36 317.867 294.941C283.635 325.852 228.898 338.982 182.745 333.955Z" fill="white"/>
<path opacity="0.7" d="M182.745 333.955C148.894 330.256 109.535 315.949 91.4515 287.333C64.1274 244.125 22.0966 247.741 3.82657 163.395C1.09647 151.093 -0.179791 138.552 0.0203279 125.994C0.135021 119.851 0.676033 113.721 1.64001 107.642C10.0948 54.0346 50.3115 17.9614 98.8211 4.72649C162.71 -12.7174 204.506 22.0579 229.692 45.0989C254.878 68.1398 333.351 85.0361 352.026 167.822C354.926 180.451 356.246 193.349 355.962 206.258C355.152 235.714 344.746 267.841 322.953 290.072C321.333 291.737 319.638 293.36 317.867 294.941C283.635 325.852 228.898 338.982 182.745 333.955Z" fill="white"/>
<path d="M143.798 63.4103C143.798 63.4103 113.249 60.5106 109.043 75.2519C104.837 89.9933 119.569 102.378 124.063 104.746C126.177 112.712 125.525 121.159 122.215 128.707C116.68 141.611 110.048 160.581 81.1622 186.91C52.2765 213.238 32.4377 224.029 27.7004 253.523C22.9632 283.017 37.175 294.605 76.1477 294.87C115.12 295.136 178.565 249.052 194.394 194.28C210.224 139.509 205.718 116.877 204.932 97.1098C204.146 77.343 192.788 58.9163 172.765 56.8252C152.741 54.7342 143.798 63.4103 143.798 63.4103Z" fill="#6594DA" stroke="#263238" stroke-linecap="round" stroke-linejoin="round"/>
<path d="M150.881 86.3081C150.881 86.3081 118.91 76.4766 116.934 84.8293C114.959 93.182 137.108 96.6363 137.108 92.2115C137.108 87.7868 125.3 87.7984 125.3 87.7984" stroke="#263238" stroke-miterlimit="10"/>
<path d="M181.373 62.2088C181.373 62.2088 155.306 61.2268 153.827 70.573C152.348 79.9192 189.738 108.928 204.493 112.868" stroke="#151A1D" stroke-miterlimit="10"/>
<path d="M172.522 62.2087C172.522 62.2087 163.672 67.6154 167.115 74.0157C170.558 80.4159 189.241 88.7686 198.589 88.7686" stroke="#151A1D" stroke-miterlimit="10"/>
<path d="M132.544 147.133C143.146 146.515 153.774 146.515 164.376 147.133C181.326 148.173 187.207 154.747 187.207 154.747C187.207 154.747 161.603 258.872 159.177 278.246C156.75 297.62 156.415 312.5 156.415 312.5H92.7163C92.7163 312.5 108.28 246.071 114.508 213.908C120.735 181.746 132.544 147.133 132.544 147.133Z" fill="#151A1D" stroke="#263238" stroke-linecap="round" stroke-linejoin="round"/>
<path d="M140.644 150.045C140.644 150.045 135.895 170.054 135.895 181.896C135.895 193.737 144.064 209.022 157.49 204.019C170.916 199.017 173.031 184.842 173.031 175.599C173.031 166.357 172.511 153.753 172.511 153.753C172.511 153.753 165.925 159.021 155.653 155.59C145.381 152.159 140.644 150.045 140.644 150.045Z" fill="white"/>
<path d="M172.985 170.054C172.846 161.967 172.511 153.73 172.511 153.73C172.511 153.73 165.925 158.998 155.653 155.567C145.381 152.136 140.632 150.045 140.632 150.045C140.632 150.045 138.449 159.287 137.039 168.876C140.02 173.716 145.416 177.841 155.272 177.286C163.198 176.836 168.86 174.028 172.985 170.054Z" fill="#6594DA"/>
<path opacity="0.5" d="M172.985 170.054C172.846 161.967 172.511 153.73 172.511 153.73C172.511 153.73 165.925 158.998 155.653 155.567C145.381 152.136 140.632 150.045 140.632 150.045C140.632 150.045 138.449 159.287 137.039 168.876C140.02 173.716 145.416 177.841 155.272 177.286C163.198 176.836 168.86 174.028 172.985 170.054Z" fill="white"/>
<path d="M140.644 150.045C140.644 150.045 135.895 170.054 135.895 181.896C135.895 193.737 144.064 209.022 157.49 204.019C170.916 199.017 173.031 184.842 173.031 175.599C173.031 166.357 172.511 153.753 172.511 153.753C172.511 153.753 165.925 159.021 155.653 155.59C145.381 152.159 140.644 150.045 140.644 150.045Z" stroke="#263238" stroke-linecap="round" stroke-linejoin="round"/>
<path d="M171.193 157.935C171.193 157.935 164.873 166.369 163.024 174.791C161.176 183.213 164.076 188.227 164.076 188.227" stroke="#263238" stroke-linecap="round" stroke-linejoin="round"/>
<path d="M145.866 310.663C145.601 306.712 145.335 294.073 153.504 273.278C161.673 252.483 167.981 221.395 169.564 195.875C171.147 170.354 172.464 153.742 172.464 153.742C172.464 148.993 174.302 146.105 188.259 148.208C202.217 150.31 233.818 154.793 233.564 159.01C233.309 163.226 215.077 222.203 213.02 237.742C210.963 253.28 211.437 259.588 219.34 255.637C227.243 251.686 238.301 245.101 238.301 245.101V256.943C238.301 256.943 210.386 292.756 202.217 298.29C194.048 303.824 194.314 302.761 192.211 296.442C190.108 290.122 190.108 268.276 190.108 268.276C181.223 292.629 181.696 306.562 182.678 312.5H146.04C146.005 311.922 145.959 311.368 145.866 310.663ZM201.94 222.354L212.338 183.652ZM53.7671 312.5H101.706C103.277 305.834 110.51 275.381 115.883 258.791C121.937 240.099 129.841 216.924 131.424 202.968C133.007 189.012 139.592 151.882 139.592 151.882C140.644 144.777 139.592 145.562 139.592 145.562C139.592 145.562 89.0193 146.348 85.2872 146.613C81.5552 146.879 83.1843 172.157 83.1843 208.236C83.2306 241.381 57.892 302.738 53.7671 312.5ZM92.4509 211.921L100.874 200.865Z" fill="white"/>
<path d="M213.066 237.73C213.471 234.727 214.476 230.117 215.828 224.595L206.18 222.781C206.18 222.781 173.169 281.585 156.658 293.969C152.961 296.742 149.367 299.26 146.155 301.617C145.815 304.62 145.734 307.646 145.913 310.663C145.913 311.368 146.005 311.957 146.04 312.5H182.725C181.742 306.562 181.269 292.629 190.154 268.276C190.154 268.276 190.154 290.122 192.257 296.442C194.36 302.761 194.106 303.824 202.263 298.29C210.42 292.756 238.301 256.943 238.301 256.943V245.101C238.301 245.101 227.243 251.686 219.34 255.626C211.437 259.565 210.952 253.257 213.066 237.73Z" fill="#6594DA"/>
<path d="M85.9805 225.357L78.4008 240.515C70.8328 271.372 56.7481 305.441 53.7671 312.5H65.1828L85.9805 225.357Z" fill="#6594DA"/>
<path opacity="0.5" d="M213.066 237.73C213.471 234.727 214.476 230.117 215.828 224.595L206.18 222.781C206.18 222.781 173.169 281.585 156.658 293.969C152.961 296.742 149.367 299.26 146.155 301.617C145.815 304.62 145.734 307.646 145.913 310.663C145.913 311.368 146.005 311.957 146.04 312.5H182.725C181.742 306.562 181.269 292.629 190.154 268.276C190.154 268.276 190.154 290.122 192.257 296.442C194.36 302.761 194.106 303.824 202.263 298.29C210.42 292.756 238.301 256.943 238.301 256.943V245.101C238.301 245.101 227.243 251.686 219.34 255.626C211.437 259.565 210.952 253.257 213.066 237.73Z" fill="white"/>
<path opacity="0.5" d="M85.9805 225.357L78.4008 240.515C70.8328 271.372 56.7481 305.441 53.7671 312.5H65.1828L85.9805 225.357Z" fill="white"/>
<path d="M201.94 222.354L212.338 183.652M92.4509 211.921L100.874 200.865M145.866 310.663C145.601 306.712 145.335 294.073 153.504 273.278C161.673 252.483 167.981 221.395 169.564 195.875C171.147 170.354 172.464 153.742 172.464 153.742C172.464 148.993 174.302 146.105 188.259 148.208C202.217 150.31 233.818 154.793 233.564 159.01C233.309 163.226 215.077 222.203 213.02 237.742C210.963 253.28 211.437 259.588 219.34 255.637C227.243 251.686 238.301 245.101 238.301 245.101V256.943C238.301 256.943 210.386 292.756 202.217 298.29C194.048 303.824 194.314 302.761 192.211 296.442C190.108 290.122 190.108 268.276 190.108 268.276C181.223 292.629 181.696 306.562 182.678 312.5H146.04C146.005 311.922 145.959 311.368 145.866 310.663ZM53.7671 312.5H101.706C103.277 305.834 110.51 275.381 115.883 258.791C121.937 240.099 129.841 216.924 131.424 202.968C133.007 189.012 139.592 151.882 139.592 151.882C140.644 144.777 139.592 145.562 139.592 145.562C139.592 145.562 89.0193 146.348 85.2872 146.613C81.5552 146.879 83.1843 172.157 83.1843 208.236C83.2306 241.381 57.892 302.738 53.7671 312.5Z" stroke="#263238" stroke-linecap="round" stroke-linejoin="round"/>
<path d="M136.958 145.297L116.149 182.693L124.572 194.28L114.832 201.12L109.043 276.432" stroke="#263238" stroke-linecap="round" stroke-linejoin="round"/>
<path d="M180.194 150.322L186.584 188.735L177.814 195.447L188.132 204.724L162.331 266.116" stroke="#263238" stroke-linecap="round" stroke-linejoin="round"/>
<path d="M113.248 254.84C113.248 254.84 126.686 249.306 134.578 242.733C142.469 236.159 156.438 216.658 158.842 216.924C161.245 217.19 175.434 227.46 182.551 229.828C189.669 232.197 194.926 232.197 194.66 233.779C194.394 235.362 191.506 236.933 185.971 236.933C180.437 236.933 165.428 229.031 165.428 229.031C165.428 229.031 173.597 239.567 172.279 240.884C167.12 244.939 161.453 248.303 155.422 250.889C149.101 253.257 144.884 255.372 143.567 255.106C142.25 254.84 142.516 252.206 143.313 251.42L145.681 249.052C145.681 249.052 140.089 253.003 137.212 253.003H134.312L111.666 272.215L113.248 254.84Z" fill="white"/>
<path d="M192.315 235.917H192.084C179.663 235.062 162.551 224.791 162.551 224.791L165.393 229.054C165.393 229.054 180.414 236.956 185.937 236.956C188.11 237.025 190.276 236.672 192.315 235.917V235.917Z" fill="#6594DA"/>
<path d="M165.116 238.886C162.978 240.607 159.558 236.749 159.558 236.749C159.558 236.749 160.413 245.309 157.848 245.737C155.283 246.164 151.851 243.599 151.851 243.599C151.851 243.599 151.851 249.156 149.286 249.156C146.721 249.156 142.874 241.069 142.874 241.069C142.874 241.069 143.798 245.136 141.152 247.909C138.506 250.681 133.457 250.046 133.457 250.046L113.341 264.556L112.185 265.896L111.619 272.204L134.312 253.003H137.2C140.101 253.003 145.635 249.052 145.635 249.052L143.266 251.421C142.469 252.206 142.203 254.886 143.521 255.106C144.838 255.325 149.055 253.257 155.375 250.889C161.406 248.303 167.074 244.939 172.233 240.884C173.55 239.567 165.381 229.031 165.381 229.031C165.381 229.031 167.253 237.176 165.116 238.886Z" fill="#6594DA"/>
<g opacity="0.5">
<path d="M192.315 235.917H192.084C179.663 235.062 162.551 224.791 162.551 224.791L165.393 229.054C165.393 229.054 180.414 236.956 185.937 236.956C188.11 237.025 190.276 236.672 192.315 235.917V235.917Z" fill="white"/>
<path d="M165.116 238.886C162.978 240.607 159.558 236.749 159.558 236.749C159.558 236.749 160.413 245.309 157.848 245.737C155.283 246.164 151.851 243.599 151.851 243.599C151.851 243.599 151.851 249.156 149.286 249.156C146.721 249.156 142.874 241.069 142.874 241.069C142.874 241.069 143.798 245.136 141.152 247.909C138.506 250.681 133.457 250.046 133.457 250.046L113.341 264.556L112.185 265.896L111.619 272.204L134.312 253.003H137.2C140.101 253.003 145.635 249.052 145.635 249.052L143.266 251.421C142.469 252.206 142.203 254.886 143.521 255.106C144.838 255.325 149.055 253.257 155.375 250.889C161.406 248.303 167.074 244.939 172.233 240.884C173.55 239.567 165.381 229.031 165.381 229.031C165.381 229.031 167.253 237.176 165.116 238.886Z" fill="white"/>
</g>
<path d="M145.647 249.052L143.798 245.101" stroke="#263238" stroke-linecap="round" stroke-linejoin="round"/>
<path d="M150.649 240.099C150.649 240.099 155.918 249.838 155.387 250.889" stroke="#263238" stroke-linecap="round" stroke-linejoin="round"/>
<path d="M157.755 232.982C157.755 232.982 165.924 244.535 164.607 246.418" stroke="#263238" stroke-linecap="round" stroke-linejoin="round"/>
<path d="M113.248 254.84C113.248 254.84 126.686 249.306 134.578 242.733C142.469 236.159 156.438 216.658 158.842 216.924C161.245 217.19 175.434 227.46 182.551 229.828C189.669 232.197 194.926 232.197 194.66 233.779C194.394 235.362 191.506 236.933 185.971 236.933C180.437 236.933 165.428 229.031 165.428 229.031C165.428 229.031 173.597 239.567 172.279 240.884C167.12 244.939 161.453 248.303 155.422 250.889C149.101 253.257 144.884 255.372 143.567 255.106C142.25 254.84 142.516 252.206 143.313 251.42L145.681 249.052C145.681 249.052 140.089 253.003 137.212 253.003H134.312L111.666 272.215L113.248 254.84Z" stroke="#263238" stroke-linecap="round" stroke-linejoin="round"/>
<path d="M90.082 146.094C90.082 146.094 81.3816 145.297 79.2787 145.297C77.1758 145.297 74.01 146.879 73.5016 153.984C72.9932 161.089 38.4111 294.073 38.4111 297.493C38.4111 300.913 43.6452 302.114 59.8213 298.025C73.4669 294.559 113.999 280.915 113.999 280.915L117.581 252.16L75.3849 260.64L95.9285 200.334" fill="white"/>
<path d="M115.236 271.314C112.255 272.112 65.0438 284.785 56.0545 287.777C46.8111 290.873 66.3725 275.393 59.6711 275.912C52.9696 276.432 45.2166 285.709 45.2166 285.709L63.172 197.608C52.8425 239.14 38.4111 295.287 38.4111 297.493C38.4111 300.959 43.6452 302.114 59.8213 298.025C73.4669 294.559 113.999 280.915 113.999 280.915L115.236 271.314Z" fill="#6594DA"/>
<path opacity="0.5" d="M115.236 271.314C112.255 272.112 65.0438 284.785 56.0545 287.777C46.8111 290.873 66.3725 275.393 59.6711 275.912C52.9696 276.432 45.2166 285.709 45.2166 285.709L63.172 197.608C52.8425 239.14 38.4111 295.287 38.4111 297.493C38.4111 300.959 43.6452 302.114 59.8213 298.025C73.4669 294.559 113.999 280.915 113.999 280.915L115.236 271.314Z" fill="white"/>
<path d="M90.082 146.094C90.082 146.094 81.3816 145.297 79.2787 145.297C77.1758 145.297 74.01 146.879 73.5016 153.984C72.9932 161.089 38.4111 294.073 38.4111 297.493C38.4111 300.913 43.6452 302.114 59.8213 298.025C73.4669 294.559 113.999 280.915 113.999 280.915L117.581 252.16L75.3849 260.64L95.9285 200.334" stroke="#263238" stroke-linecap="round" stroke-linejoin="round"/>
<path d="M201.963 204.239L168.109 278.292C167.9 278.746 167.809 279.244 167.843 279.742C167.877 280.24 168.035 280.722 168.302 281.144C168.57 281.565 168.939 281.913 169.375 282.155C169.811 282.398 170.301 282.527 170.801 282.532L225.661 282.994C226.225 283.001 226.781 282.847 227.261 282.55C227.742 282.254 228.129 281.827 228.376 281.319L263.72 208.444C263.939 207.994 264.041 207.496 264.018 206.997C263.994 206.497 263.846 206.011 263.586 205.584C263.326 205.156 262.963 204.801 262.531 204.55C262.098 204.298 261.609 204.16 261.109 204.146L204.794 202.494C204.203 202.475 203.619 202.631 203.116 202.941C202.613 203.251 202.212 203.702 201.963 204.239Z" fill="#263238" stroke="#263238" stroke-linecap="round" stroke-linejoin="round"/>
<path d="M179.651 256.654L176.947 262.58" stroke="white" stroke-linecap="round" stroke-linejoin="round"/>
<path d="M214.279 203.881L205.902 203.627C205.314 203.612 204.734 203.771 204.235 204.083C203.736 204.395 203.339 204.847 203.095 205.383L181.685 252.137" stroke="white" stroke-linecap="round" stroke-linejoin="round"/>
<path d="M221.339 204.089L216.902 203.95" stroke="white" stroke-linecap="round" stroke-linejoin="round"/>
<path d="M252.928 247.423C252.928 247.423 246.377 250.253 241.374 252.194C236.371 254.135 239.248 255.914 241.201 255.914C243.153 255.914 250.756 253.604 253.587 251.848C256.418 250.092 256.106 246.892 252.928 247.423Z" fill="#6594DA"/>
<path opacity="0.5" d="M252.928 247.423C252.928 247.423 246.377 250.253 241.374 252.194C236.371 254.135 239.248 255.914 241.201 255.914C243.153 255.914 250.756 253.604 253.587 251.848C256.418 250.092 256.106 246.892 252.928 247.423Z" fill="white"/>
<path d="M252.928 247.423C252.928 247.423 246.377 250.253 241.374 252.194C236.371 254.135 239.248 255.914 241.201 255.914C243.153 255.914 250.756 253.604 253.587 251.848C256.418 250.092 256.106 246.892 252.928 247.423Z" stroke="#263238" stroke-linecap="round" stroke-linejoin="round"/>
<path d="M256.545 240.549C256.545 240.549 247.648 244.396 240.912 247.03C234.176 249.664 238.035 252.079 240.681 252.079C243.327 252.079 253.656 248.96 257.504 246.557C261.352 244.154 260.866 239.821 256.545 240.549Z" fill="#6594DA"/>
<path opacity="0.5" d="M256.545 240.549C256.545 240.549 247.648 244.396 240.912 247.03C234.176 249.664 238.035 252.079 240.681 252.079C243.327 252.079 253.656 248.96 257.504 246.557C261.352 244.154 260.866 239.821 256.545 240.549Z" fill="white"/>
<path d="M256.545 240.549C256.545 240.549 247.648 244.396 240.912 247.03C234.176 249.664 238.035 252.079 240.681 252.079C243.327 252.079 253.656 248.96 257.504 246.557C261.352 244.154 260.866 239.821 256.545 240.549Z" stroke="#263238" stroke-linecap="round" stroke-linejoin="round"/>
<path d="M256.279 234.126C256.279 234.126 246.527 238.331 239.156 241.231C231.784 244.13 236.001 246.764 238.89 246.764C241.779 246.764 253.113 243.299 257.377 240.699C261.64 238.1 261.017 233.363 256.279 234.126Z" fill="#6594DA"/>
<path opacity="0.5" d="M256.279 234.126C256.279 234.126 246.527 238.331 239.156 241.231C231.784 244.13 236.001 246.764 238.89 246.764C241.779 246.764 253.113 243.299 257.377 240.699C261.64 238.1 261.017 233.363 256.279 234.126Z" fill="white"/>
<path d="M256.279 234.126C256.279 234.126 246.527 238.331 239.156 241.231C231.784 244.13 236.001 246.764 238.89 246.764C241.779 246.764 253.113 243.299 257.377 240.699C261.64 238.1 261.017 233.363 256.279 234.126Z" stroke="#263238" stroke-linecap="round" stroke-linejoin="round"/>
<path d="M257.042 228.245C257.042 228.245 247.301 232.462 239.93 235.35C232.558 238.239 236.764 240.884 239.664 240.884C242.564 240.884 253.887 237.418 258.093 234.831C262.299 232.243 261.779 227.46 257.042 228.245Z" fill="#6594DA"/>
<path opacity="0.5" d="M257.042 228.245C257.042 228.245 247.301 232.462 239.93 235.35C232.558 238.239 236.764 240.884 239.664 240.884C242.564 240.884 253.887 237.418 258.093 234.831C262.299 232.243 261.779 227.46 257.042 228.245Z" fill="white"/>
<path d="M257.042 228.245C257.042 228.245 247.301 232.462 239.93 235.35C232.558 238.239 236.764 240.884 239.664 240.884C242.564 240.884 253.887 237.418 258.093 234.831C262.299 232.243 261.779 227.46 257.042 228.245Z" stroke="#263238" stroke-linecap="round" stroke-linejoin="round"/>
<path d="M157.756 82.8884C157.756 82.8884 138.795 95.0073 134.843 99.7439C130.892 104.481 132.74 114.497 133.006 117.651C133.272 120.805 133.526 141.912 135.375 145.297C137.224 148.682 142.874 162.302 161.268 161.47C174.521 160.858 181.199 150.068 183.834 143.217C185.522 138.462 186.583 133.506 186.988 128.476C186.988 128.476 194.648 127.147 194.648 120.828C194.648 114.508 192.938 107.138 189.357 107.935C187.543 108.339 185.151 112.406 185.151 112.406C178.346 107.738 172.138 102.256 166.664 96.0817C158.287 86.3196 157.756 82.8884 157.756 82.8884Z" fill="white"/>
<path d="M156.566 93.8518C156.566 93.8518 173.897 116.796 185.151 112.336C178.347 107.668 172.138 102.186 166.664 96.0122C158.241 86.2732 157.709 82.842 157.709 82.842C157.709 82.842 138.749 94.9609 134.797 99.6976C133.899 100.847 133.264 102.18 132.937 103.602L156.566 93.8518Z" fill="#6594DA"/>
<path d="M194.395 116.934C194.2 119 193.698 121.025 192.904 122.942C190.755 127.655 185.197 126.8 185.197 126.8C185.197 126.8 181.731 144.765 177.109 150.322C172.488 155.879 159.57 160.592 146.733 154.18C133.896 147.769 135.606 131.93 135.606 131.93C135.606 131.93 143.313 131.93 146.305 124.652C149.298 117.373 145.45 113.954 137.744 114.393C135.941 114.462 134.22 115.161 132.879 116.368C132.937 116.865 132.983 117.304 133.018 117.651C133.284 120.816 133.538 141.911 135.387 145.296C137.235 148.681 142.885 162.302 161.28 161.47C174.533 160.858 181.211 150.068 183.845 143.217C185.534 138.461 186.595 133.506 187 128.476C187 128.476 194.66 127.147 194.66 120.828C194.641 119.526 194.553 118.226 194.395 116.934V116.934Z" fill="#6594DA"/>
<path opacity="0.5" d="M194.395 116.934C194.2 119 193.698 121.025 192.904 122.942C190.755 127.655 185.197 126.8 185.197 126.8C185.197 126.8 181.731 144.765 177.109 150.322C172.488 155.879 159.57 160.592 146.733 154.18C133.896 147.769 135.606 131.93 135.606 131.93C135.606 131.93 143.313 131.93 146.305 124.652C149.298 117.373 145.45 113.954 137.744 114.393C135.941 114.462 134.22 115.161 132.879 116.368C132.937 116.865 132.983 117.304 133.018 117.651C133.284 120.816 133.538 141.911 135.387 145.296C137.235 148.681 142.885 162.302 161.28 161.47C174.533 160.858 181.211 150.068 183.845 143.217C185.534 138.461 186.595 133.506 187 128.476C187 128.476 194.66 127.147 194.66 120.828C194.641 119.526 194.553 118.226 194.395 116.934V116.934Z" fill="white"/>
<path d="M172.743 129.183C178.127 126.939 180.672 120.756 178.427 115.374C176.183 109.991 170 107.447 164.616 109.69C159.233 111.934 156.688 118.117 158.932 123.5C161.176 128.882 167.36 131.427 172.743 129.183Z" fill="#6594DA"/>
<path opacity="0.5" d="M172.743 129.183C178.127 126.939 180.672 120.756 178.427 115.374C176.183 109.991 170 107.447 164.616 109.69C159.233 111.934 156.688 118.117 158.932 123.5C161.176 128.882 167.36 131.427 172.743 129.183Z" fill="white"/>
<path opacity="0.5" d="M156.566 93.8518C156.566 93.8518 173.897 116.796 185.151 112.336C178.347 107.668 172.138 102.186 166.664 96.0122C158.241 86.2732 157.709 82.842 157.709 82.842C157.709 82.842 138.749 94.9609 134.797 99.6976C133.899 100.847 133.264 102.18 132.937 103.602L156.566 93.8518Z" fill="white"/>
<path d="M157.756 82.8884C157.756 82.8884 138.795 95.0073 134.843 99.7439C130.892 104.481 132.74 114.497 133.006 117.651C133.272 120.805 133.526 141.912 135.375 145.297C137.224 148.682 142.874 162.302 161.268 161.47C174.521 160.858 181.199 150.068 183.834 143.217C185.522 138.462 186.583 133.506 186.988 128.476C186.988 128.476 194.648 127.147 194.648 120.828C194.648 114.508 192.938 107.138 189.357 107.935C187.543 108.339 185.151 112.406 185.151 112.406C178.346 107.738 172.138 102.256 166.664 96.0817C158.287 86.3196 157.756 82.8884 157.756 82.8884Z" stroke="#263238" stroke-linecap="round" stroke-linejoin="round"/>
<path d="M139.326 126.858C145.286 126.858 150.118 122.027 150.118 116.068C150.118 110.109 145.286 105.278 139.326 105.278C133.366 105.278 128.535 110.109 128.535 116.068C128.535 122.027 133.366 126.858 139.326 126.858Z" fill="white"/>
<path d="M130.395 122.145C131.857 124.28 134.037 125.819 136.538 126.483C139.039 127.147 141.695 126.891 144.024 125.762C146.352 124.633 148.198 122.706 149.225 120.331C150.253 117.956 150.393 115.291 149.621 112.822C148.72 114.797 147.646 116.287 146.479 116.38C142.827 116.692 142.146 115.906 139.327 116.068C137.501 116.183 133.214 119.672 130.395 122.145Z" fill="#A4C8FF"/>
<path d="M139.326 126.858C145.286 126.858 150.118 122.027 150.118 116.068C150.118 110.109 145.286 105.278 139.326 105.278C133.366 105.278 128.535 110.109 128.535 116.068C128.535 122.027 133.366 126.858 139.326 126.858Z" stroke="#263238" stroke-linecap="round" stroke-linejoin="round"/>
<path d="M168.825 126.858C174.785 126.858 179.617 122.027 179.617 116.068C179.617 110.109 174.785 105.278 168.825 105.278C162.865 105.278 158.033 110.109 158.033 116.068C158.033 122.027 162.865 126.858 168.825 126.858Z" fill="white"/>
<path d="M168.825 126.87C171.688 126.867 174.433 125.727 176.457 123.702C178.48 121.677 179.617 118.931 179.617 116.068C179.617 114.917 179.429 113.774 179.062 112.683C175.318 119.372 170.754 115.883 166.179 115.421C163.429 115.144 160.841 118.171 159.131 120.816C160.018 122.632 161.397 124.161 163.111 125.232C164.824 126.302 166.804 126.87 168.825 126.87V126.87Z" fill="#A4C8FF"/>
<path d="M168.825 126.858C174.785 126.858 179.617 122.027 179.617 116.068C179.617 110.109 174.785 105.278 168.825 105.278C162.865 105.278 158.033 110.109 158.033 116.068C158.033 122.027 162.865 126.858 168.825 126.858Z" stroke="#263238" stroke-linecap="round" stroke-linejoin="round"/>
<path d="M150.118 111.863C150.118 111.863 154.601 107.912 158.553 111.863" stroke="#263238" stroke-linecap="round" stroke-linejoin="round"/>
<path d="M135.375 102.378C135.375 102.378 139.327 96.8441 145.647 98.1611" stroke="#263238" stroke-linecap="round" stroke-linejoin="round"/>
<path d="M159.604 97.6413C159.604 97.6413 165.925 95.0073 171.979 102.112" stroke="#263238" stroke-linecap="round" stroke-linejoin="round"/>
<path d="M151.701 115.814C151.701 115.814 152.487 122.133 150.916 125.056C149.344 127.979 145.913 129.538 147.23 131.641C148.547 133.744 153.007 134.807 153.007 134.807" stroke="#263238" stroke-linecap="round" stroke-linejoin="round"/>
<path d="M151.967 140.826C151.967 140.826 158.553 142.408 163.024 137.66" stroke="#263238" stroke-linecap="round" stroke-linejoin="round"/>
<path d="M225.5 312.5L15.5 312.5" stroke="#263238" stroke-linecap="round" stroke-linejoin="round"/>
<path d="M245.245 312.5H234.522" stroke="#263238" stroke-linecap="round" stroke-linejoin="round"/>
<path d="M256.263 34.0001C248.495 34.0207 241.052 37.121 235.566 42.6214C230.081 48.1217 227 55.573 227 63.3413C227 79.547 256.341 116 256.341 116C256.341 116 285.682 79.547 285.682 63.3413C285.682 59.4816 284.921 55.6598 283.441 52.0949C281.962 48.53 279.794 45.292 277.061 42.5664C274.328 39.8408 271.085 37.6812 267.516 36.2112C263.947 34.7412 260.123 33.9899 256.263 34.0001V34.0001ZM255.875 75C253.492 75 251.163 74.2935 249.182 72.9697C247.201 71.6459 245.656 69.7644 244.745 67.563C243.833 65.3616 243.594 62.9393 244.059 60.6023C244.524 58.2654 245.671 56.1187 247.356 54.4339C249.041 52.749 251.188 51.6016 253.525 51.1368C255.862 50.6719 258.284 50.9105 260.485 51.8223C262.687 52.7342 264.568 54.2783 265.892 56.2595C267.216 58.2407 267.922 60.5699 267.922 62.9527C267.922 66.1478 266.653 69.2121 264.394 71.4714C262.134 73.7308 259.07 75 255.875 75V75Z" fill="#263238"/>
</svg>
